  0
SECTION
  2
HEADER
  9
$ACADVER
  1
AC1014
  9
$HANDSEED
  5
FFFF
  9
$INSUNITS
 70
     4
  9
$MEASUREMENT
 70
     1
  0
ENDSEC
  0
SECTION
  2
TABLES
  0
TABLE
  2
VPORT
  5
8
330
0
100
AcDbSymbolTable
 70
     4
  0
VPORT
  5
2E
330
8
100
AcDbSymbolTableRecord
100
AcDbViewportTableRecord
  2
*ACTIVE
 70
     0
 10
0.0
 20
0.0
 11
1.0
 21
1.0
 12
210.0
 22
148.5
 13
0.0
 23
0.0
 14
10.0
 24
10.0
 15
10.0
 25
10.0
 16
0.0
 26
0.0
 36
1.0
 17
0.0
 27
0.0
 37
0.0
 40
341.0
 41
1.24
 42
50.0
 43
0.0
 44
0.0
 50
0.0
 51
0.0
 71
     0
 72
   100
 73
     1
 74
     3
 75
     0
 76
     0
 77
     0
 78
     0
  0
ENDTAB
  0
TABLE
  2
LTYPE
  5
5
330
0
100
AcDbSymbolTable
 70
     1
  0
LTYPE
  5
14
330
5
100
AcDbSymbolTableRecord
100
AcDbLinetypeTableRecord
  2
BYBLOCK
 70
     0
  3

 72
    65
 73
     0
 40
0.0
  0
LTYPE
  5
15
330
5
100
AcDbSymbolTableRecord
100
AcDbLinetypeTableRecord
  2
BYLAYER
 70
     0
  3

 72
    65
 73
     0
 40
0.0
  0
LTYPE
  5
16
330
5
100
AcDbSymbolTableRecord
100
AcDbLinetypeTableRecord
  2
CONTINUOUS
 70
     0
  3
Solid line
 72
    65
 73
     0
 40
0.0
  0
ENDTAB
  0
TABLE
  2
LAYER
  5
2
100
AcDbSymbolTable
 70
2
  0
LAYER
  5
50
100
AcDbSymbolTableRecord
100
AcDbLayerTableRecord
  2
0
 70
0
  6
CONTINUOUS
  0
LAYER
  5
51
100
AcDbSymbolTableRecord
100
AcDbLayerTableRecord
  2
Layer_1
 70
0
  6
CONTINUOUS
  0
ENDTAB
  0
TABLE
  2
STYLE
  5
3
330
0
100
AcDbSymbolTable
 70
     1
  0
STYLE
  5
11
330
3
100
AcDbSymbolTableRecord
100
AcDbTextStyleTableRecord
  2
STANDARD
 70
     0
 40
0.0
 41
1.0
 50
0.0
 71
     0
 42
2.5
  3
txt
  4

  0
ENDTAB
  0
TABLE
  2
VIEW
  5
6
330
0
100
AcDbSymbolTable
 70
     0
  0
ENDTAB
  0
TABLE
  2
UCS
  5
7
330
0
100
AcDbSymbolTable
 70
     0
  0
ENDTAB
  0
TABLE
  2
APPID
  5
9
330
0
100
AcDbSymbolTable
 70
     2
  0
APPID
  5
12
330
9
100
AcDbSymbolTableRecord
100
AcDbRegAppTableRecord
  2
ACAD
 70
     0
  0
ENDTAB
  0
TABLE
  2
DIMSTYLE
  5
A
330
0
100
AcDbSymbolTable
 70
     1
  0
DIMSTYLE
105
27
330
A
100
AcDbSymbolTableRecord
100
AcDbDimStyleTableRecord
  2
ISO-25
 70
     0
  3

  4

  5

  6

  7

 40
1.0
 41
2.5
 42
0.625
 43
3.75
 44
1.25
 45
0.0
 46
0.0
 47
0.0
 48
0.0
140
2.5
141
2.5
142
0.0
143
0.03937007874016
144
1.0
145
0.0
146
1.0
147
0.625
 71
     0
 72
     0
 73
     0
 74
     0
 75
     0
 76
     0
 77
     1
 78
     8
170
     0
171
     3
172
     1
173
     0
174
     0
175
     0
176
     0
177
     0
178
     0
270
     2
271
     2
272
     2
273
     2
274
     3
340
11
275
     0
280
     0
281
     0
282
     0
283
     0
284
     8
285
     0
286
     0
287
     3
288
     0
  0
ENDTAB
  0
TABLE
  2
BLOCK_RECORD
  5
1
330
0
100
AcDbSymbolTable
 70
     1
  0
BLOCK_RECORD
  5
1F
330
1
100
AcDbSymbolTableRecord
100
AcDbBlockTableRecord
  2
*MODEL_SPACE
  0
BLOCK_RECORD
  5
1B
330
1
100
AcDbSymbolTableRecord
100
AcDbBlockTableRecord
  2
*PAPER_SPACE
  0
ENDTAB
  0
ENDSEC
  0
SECTION
  2
BLOCKS
  0
BLOCK
  5
20
330
1F
100
AcDbEntity
  8
0
100
AcDbBlockBegin
  2
*MODEL_SPACE
 70
     0
 10
0.0
 20
0.0
 30
0.0
  3
*MODEL_SPACE
  1

  0
ENDBLK
  5
21
330
1F
100
AcDbEntity
  8
0
100
AcDbBlockEnd
  0
BLOCK
  5
1C
330
1B
100
AcDbEntity
 67
     1
  8
0
100
AcDbBlockBegin
  2
*PAPER_SPACE
  1

  0
ENDBLK
  5
1D
330
1B
100
AcDbEntity
 67
     1
  8
0
100
AcDbBlockEnd
  0
ENDSEC
  0
SECTION
  2
ENTITIES
  0
LWPOLYLINE
  5
100
100
AcDbEntity
  8
Layer_1
 62
7
100
AcDbPolyline
 90
4
 70
1
 10
57.368591
 20
22.370023
 30
0.0
 10
67.085707
 20
20.609485
 30
0.0
 10
64.518513
 20
6.440117
 30
0.0
 10
54.801397
 20
8.200655
 30
0.0
  0
SPLINE
  5
101
100
AcDbEntity
  8
Layer_1
 62
7
100
AcDbSpline
 70
8
 71
3
 72
8
 73
4
 74
0
 40
0
 40
0
 40
0
 40
0
 40
1
 40
1
 40
1
 40
1
 10
7.639833
 20
11.169064
 30
0.0
 10
8.226877
 20
11.169064
 30
0.0
 10
8.784982
 20
11.260014
 30
0.0
 10
9.314149
 20
11.441914
 30
0.0
  0
SPLINE
  5
102
100
AcDbEntity
  8
Layer_1
 62
7
100
AcDbSpline
 70
8
 71
3
 72
8
 73
4
 74
0
 40
0
 40
0
 40
0
 40
0
 40
1
 40
1
 40
1
 40
1
 10
9.314149
 20
11.441914
 30
0.0
 10
9.843316
 20
11.632087
 30
0.0
 10
10.289800
 20
11.921477
 30
0.0
 10
10.653603
 20
12.310084
 30
0.0
  0
SPLINE
  5
103
100
AcDbEntity
  8
Layer_1
 62
7
100
AcDbSpline
 70
8
 71
3
 72
8
 73
4
 74
0
 40
0
 40
0
 40
0
 40
0
 40
1
 40
1
 40
1
 40
1
 10
10.653603
 20
12.310084
 30
0.0
 10
11.017405
 20
12.706957
 30
0.0
 10
11.244781
 20
13.223721
 30
0.0
 10
11.335731
 20
13.860374
 30
0.0
  0
SPLINE
  5
104
100
AcDbEntity
  8
Layer_1
 62
7
100
AcDbSpline
 70
8
 71
3
 72
8
 73
4
 74
0
 40
0
 40
0
 40
0
 40
0
 40
1
 40
1
 40
1
 40
1
 10
11.335731
 20
13.860374
 30
0.0
 10
11.410145
 20
14.455687
 30
0.0
 10
11.348133
 20
14.931111
 30
0.0
 10
11.149696
 20
15.286644
 30
0.0
  0
SPLINE
  5
105
100
AcDbEntity
  8
Layer_1
 62
7
100
AcDbSpline
 70
8
 71
3
 72
8
 73
4
 74
0
 40
0
 40
0
 40
0
 40
0
 40
1
 40
1
 40
1
 40
1
 10
11.149696
 20
15.286644
 30
0.0
 10
10.959527
 20
15.642177
 30
0.0
 10
10.661871
 20
15.898491
 30
0.0
 10
10.256728
 20
16.055584
 30
0.0
  0
SPLINE
  5
106
100
AcDbEntity
  8
Layer_1
 62
7
100
AcDbSpline
 70
8
 71
3
 72
8
 73
4
 74
0
 40
0
 40
0
 40
0
 40
0
 40
1
 40
1
 40
1
 40
1
 10
10.256728
 20
16.055584
 30
0.0
 10
9.851585
 20
16.220951
 30
0.0
 10
9.376161
 20
16.307767
 30
0.0
 10
8.830458
 20
16.316034
 30
0.0
  0
LWPOLYLINE
  5
107
100
AcDbEntity
  8
Layer_1
 62
7
100
AcDbPolyline
 90
4
 70
0
 10
8.148329
 20
8.911834
 30
0.0
 10
3.534657
 20
8.911834
 30
0.0
 10
3.906728
 20
11.181464
 30
0.0
 10
7.639833
 20
11.169064
 30
0.0
  0
SPLINE
  5
108
100
AcDbEntity
  8
Layer_1
 62
7
100
AcDbSpline
 70
8
 71
3
 72
8
 73
4
 74
0
 40
0
 40
0
 40
0
 40
0
 40
1
 40
1
 40
1
 40
1
 10
8.904872
 20
18.796494
 30
0.0
 10
9.673817
 20
18.779961
 30
0.0
 10
10.401422
 20
18.680744
 30
0.0
 10
11.087685
 20
18.498844
 30
0.0
  0
SPLINE
  5
109
100
AcDbEntity
  8
Layer_1
 62
7
100
AcDbSpline
 70
8
 71
3
 72
8
 73
4
 74
0
 40
0
 40
0
 40
0
 40
0
 40
1
 40
1
 40
1
 40
1
 10
11.087685
 20
18.498844
 30
0.0
 10
11.773948
 20
18.325211
 30
0.0
 10
12.373394
 20
18.052357
 30
0.0
 10
12.886024
 20
17.680284
 30
0.0
  0
SPLINE
  5
10a
100
AcDbEntity
  8
Layer_1
 62
7
100
AcDbSpline
 70
8
 71
3
 72
8
 73
4
 74
0
 40
0
 40
0
 40
0
 40
0
 40
1
 40
1
 40
1
 40
1
 10
12.886024
 20
17.680284
 30
0.0
 10
13.406923
 20
17.308217
 30
0.0
 10
13.803798
 20
16.820391
 30
0.0
 10
14.076649
 20
16.216804
 30
0.0
  0
SPLINE
  5
10b
100
AcDbEntity
  8
Layer_1
 62
7
100
AcDbSpline
 70
8
 71
3
 72
8
 73
4
 74
0
 40
0
 40
0
 40
0
 40
0
 40
1
 40
1
 40
1
 40
1
 10
14.076649
 20
16.216804
 30
0.0
 10
14.357769
 20
15.621497
 30
0.0
 10
14.469390
 20
14.889761
 30
0.0
 10
14.411513
 20
14.021594
 30
0.0
  0
SPLINE
  5
10c
100
AcDbEntity
  8
Layer_1
 62
7
100
AcDbSpline
 70
8
 71
3
 72
8
 73
4
 74
0
 40
0
 40
0
 40
0
 40
0
 40
1
 40
1
 40
1
 40
1
 10
14.411513
 20
14.021594
 30
0.0
 10
14.345366
 20
13.095554
 30
0.0
 10
14.064246
 20
12.322474
 30
0.0
 10
13.568153
 20
11.702354
 30
0.0
  0
SPLINE
  5
10d
100
AcDbEntity
  8
Layer_1
 62
7
100
AcDbSpline
 70
8
 71
3
 72
8
 73
4
 74
0
 40
0
 40
0
 40
0
 40
0
 40
1
 40
1
 40
1
 40
1
 10
13.568153
 20
11.702354
 30
0.0
 10
13.072060
 20
11.090507
 30
0.0
 10
12.439540
 20
10.619217
 30
0.0
 10
11.670595
 20
10.288484
 30
0.0
  0
SPLINE
  5
10e
100
AcDbEntity
  8
Layer_1
 62
7
100
AcDbSpline
 70
8
 71
3
 72
8
 73
4
 74
0
 40
0
 40
0
 40
0
 40
0
 40
1
 40
1
 40
1
 40
1
 10
11.670595
 20
10.288484
 30
0.0
 10
10.909918
 20
9.966024
 30
0.0
 10
10.107899
 20
9.763454
 30
0.0
 10
9.264540
 20
9.680774
 30
0.0
  0
LWPOLYLINE
  5
10f
100
AcDbEntity
  8
Layer_1
 62
7
100
AcDbPolyline
 90
6
 70
0
 10
8.830458
 20
16.316034
 30
0.0
 10
5.754677
 20
16.328434
 30
0.0
 10
3.050966
 20
0.751084
 30
0.0
 10
-0.000011
 20
0.751084
 30
0.0
 10
3.137782
 20
18.808894
 30
0.0
 10
8.904872
 20
18.796494
 30
0.0
  0
LWPOLYLINE
  5
110
100
AcDbEntity
  8
Layer_1
 62
7
100
AcDbPolyline
 90
2
 70
0
 10
9.264540
 20
9.680774
 30
0.0
 10
8.148329
 20
8.911834
 30
0.0
  0
SPLINE
  5
111
100
AcDbEntity
  8
Layer_1
 62
7
100
AcDbSpline
 70
8
 71
3
 72
8
 73
4
 74
0
 40
0
 40
0
 40
0
 40
0
 40
1
 40
1
 40
1
 40
1
 10
6.734462
 20
3.206764
 30
0.0
 10
7.354579
 20
3.206764
 30
0.0
 10
7.929221
 20
3.314251
 30
0.0
 10
8.458388
 20
3.529224
 30
0.0
  0
SPLINE
  5
112
100
AcDbEntity
  8
Layer_1
 62
7
100
AcDbSpline
 70
8
 71
3
 72
8
 73
4
 74
0
 40
0
 40
0
 40
0
 40
0
 40
1
 40
1
 40
1
 40
1
 10
8.458388
 20
3.529224
 30
0.0
 10
8.987555
 20
3.744197
 30
0.0
 10
9.425771
 20
4.066657
 30
0.0
 10
9.773036
 20
4.496604
 30
0.0
  0
SPLINE
  5
113
100
AcDbEntity
  8
Layer_1
 62
7
100
AcDbSpline
 70
8
 71
3
 72
8
 73
4
 74
0
 40
0
 40
0
 40
0
 40
0
 40
1
 40
1
 40
1
 40
1
 10
9.773036
 20
4.496604
 30
0.0
 10
10.128570
 20
4.934817
 30
0.0
 10
10.351812
 20
5.472251
 30
0.0
 10
10.442763
 20
6.108904
 30
0.0
  0
SPLINE
  5
114
100
AcDbEntity
  8
Layer_1
 62
7
100
AcDbSpline
 70
8
 71
3
 72
8
 73
4
 74
0
 40
0
 40
0
 40
0
 40
0
 40
1
 40
1
 40
1
 40
1
 10
10.442763
 20
6.108904
 30
0.0
 10
10.517177
 20
6.671144
 30
0.0
 10
10.484104
 20
7.154837
 30
0.0
 10
10.343543
 20
7.559984
 30
0.0
  0
SPLINE
  5
115
100
AcDbEntity
  8
Layer_1
 62
7
100
AcDbSpline
 70
8
 71
3
 72
8
 73
4
 74
0
 40
0
 40
0
 40
0
 40
0
 40
1
 40
1
 40
1
 40
1
 10
10.343543
 20
7.559984
 30
0.0
 10
10.202983
 20
7.973397
 30
0.0
 10
9.950802
 20
8.291724
 30
0.0
 10
9.587000
 20
8.514964
 30
0.0
  0
SPLINE
  5
116
100
AcDbEntity
  8
Layer_1
 62
7
100
AcDbSpline
 70
8
 71
3
 72
8
 73
4
 74
0
 40
0
 40
0
 40
0
 40
0
 40
1
 40
1
 40
1
 40
1
 10
9.587000
 20
8.514964
 30
0.0
 10
9.223198
 20
8.746471
 30
0.0
 10
8.751909
 20
8.874627
 30
0.0
 10
8.173133
 20
8.899434
 30
0.0
  0
LWPOLYLINE
  5
117
100
AcDbEntity
  8
Layer_1
 62
7
100
AcDbPolyline
 90
4
 70
0
 10
6.647646
 20
0.751094
 30
0.0
 10
1.078993
 20
0.751094
 30
0.0
 10
2.864931
 20
3.219164
 30
0.0
 10
6.734462
 20
3.206764
 30
0.0
  0
SPLINE
  5
118
100
AcDbEntity
  8
Layer_1
 62
7
100
AcDbSpline
 70
8
 71
3
 72
8
 73
4
 74
0
 40
0
 40
0
 40
0
 40
0
 40
1
 40
1
 40
1
 40
1
 10
9.835047
 20
10.313304
 30
0.0
 10
10.612260
 20
10.238891
 30
0.0
 10
11.277853
 20
10.015647
 30
0.0
 10
11.831824
 20
9.643574
 30
0.0
  0
SPLINE
  5
119
100
AcDbEntity
  8
Layer_1
 62
7
100
AcDbSpline
 70
8
 71
3
 72
8
 73
4
 74
0
 40
0
 40
0
 40
0
 40
0
 40
1
 40
1
 40
1
 40
1
 10
11.831824
 20
9.643574
 30
0.0
 10
12.394064
 20
9.279774
 30
0.0
 10
12.811610
 20
8.796084
 30
0.0
 10
13.084461
 20
8.192504
 30
0.0
  0
SPLINE
  5
11a
100
AcDbEntity
  8
Layer_1
 62
7
100
AcDbSpline
 70
8
 71
3
 72
8
 73
4
 74
0
 40
0
 40
0
 40
0
 40
0
 40
1
 40
1
 40
1
 40
1
 10
13.084461
 20
8.192504
 30
0.0
 10
13.365581
 20
7.588924
 30
0.0
 10
13.481336
 20
6.894391
 30
0.0
 10
13.431726
 20
6.108904
 30
0.0
  0
SPLINE
  5
11b
100
AcDbEntity
  8
Layer_1
 62
7
100
AcDbSpline
 70
8
 71
3
 72
8
 73
4
 74
0
 40
0
 40
0
 40
0
 40
0
 40
1
 40
1
 40
1
 40
1
 10
13.431726
 20
6.108904
 30
0.0
 10
13.340776
 20
4.868671
 30
0.0
 10
12.972840
 20
3.851681
 30
0.0
 10
12.327918
 20
3.057934
 30
0.0
  0
SPLINE
  5
11c
100
AcDbEntity
  8
Layer_1
 62
7
100
AcDbSpline
 70
8
 71
3
 72
8
 73
4
 74
0
 40
0
 40
0
 40
0
 40
0
 40
1
 40
1
 40
1
 40
1
 10
12.327918
 20
3.057934
 30
0.0
 10
11.682996
 20
2.264181
 30
0.0
 10
10.860307
 20
1.677134
 30
0.0
 10
9.859852
 20
1.296794
 30
0.0
  0
SPLINE
  5
11d
100
AcDbEntity
  8
Layer_1
 62
7
100
AcDbSpline
 70
8
 71
3
 72
8
 73
4
 74
0
 40
0
 40
0
 40
0
 40
0
 40
1
 40
1
 40
1
 40
1
 10
9.859852
 20
1.296794
 30
0.0
 10
8.859396
 20
0.924727
 30
0.0
 10
7.788660
 20
0.742827
 30
0.0
 10
6.647645
 20
0.751094
 30
0.0
  0
LWPOLYLINE
  5
11e
100
AcDbEntity
  8
Layer_1
 62
7
100
AcDbPolyline
 90
5
 70
0
 10
8.173133
 20
8.899434
 30
0.0
 10
4.601258
 20
8.911834
 30
0.0
 10
5.022938
 20
11.181464
 30
0.0
 10
9.314148
 20
11.169064
 30
0.0
 10
9.835047
 20
10.313304
 30
0.0
  0
LWPOLYLINE
  5
11f
100
AcDbEntity
  8
Layer_1
 62
7
100
AcDbPolyline
 90
1
 70
1
 10
6.647645
 20
0.751094
 30
0.0
  0
LWPOLYLINE
  5
120
100
AcDbEntity
  8
Layer_1
 62
7
100
AcDbPolyline
 90
4
 70
1
 10
21.939735
 20
18.808904
 30
0.0
 10
18.801942
 20
0.751094
 30
0.0
 10
15.763368
 20
0.751094
 30
0.0
 10
18.901161
 20
18.808904
 30
0.0
  0
LWPOLYLINE
  5
121
100
AcDbEntity
  8
Layer_1
 62
7
100
AcDbPolyline
 90
4
 70
1
 10
33.957606
 20
3.219164
 30
0.0
 10
33.523524
 20
0.751094
 30
0.0
 10
24.705457
 20
0.751094
 30
0.0
 10
25.139539
 20
3.219164
 30
0.0
  0
LWPOLYLINE
  5
122
100
AcDbEntity
  8
Layer_1
 62
7
100
AcDbPolyline
 90
4
 70
1
 10
28.711414
 20
18.808904
 30
0.0
 10
25.573621
 20
0.751094
 30
0.0
 10
22.522645
 20
0.751094
 30
0.0
 10
25.660438
 20
18.808904
 30
0.0
  0
SPLINE
  5
123
100
AcDbEntity
  8
Layer_1
 62
7
100
AcDbSpline
 70
8
 71
3
 72
8
 73
4
 74
0
 40
0
 40
0
 40
0
 40
0
 40
1
 40
1
 40
1
 40
1
 10
43.470205
 20
11.169064
 30
0.0
 10
44.057249
 20
11.169064
 30
0.0
 10
44.615354
 20
11.260014
 30
0.0
 10
45.144521
 20
11.441914
 30
0.0
  0
SPLINE
  5
124
100
AcDbEntity
  8
Layer_1
 62
7
100
AcDbSpline
 70
8
 71
3
 72
8
 73
4
 74
0
 40
0
 40
0
 40
0
 40
0
 40
1
 40
1
 40
1
 40
1
 10
45.144521
 20
11.441914
 30
0.0
 10
45.673688
 20
11.632087
 30
0.0
 10
46.120172
 20
11.921477
 30
0.0
 10
46.483974
 20
12.310084
 30
0.0
  0
SPLINE
  5
125
100
AcDbEntity
  8
Layer_1
 62
7
100
AcDbSpline
 70
8
 71
3
 72
8
 73
4
 74
0
 40
0
 40
0
 40
0
 40
0
 40
1
 40
1
 40
1
 40
1
 10
46.483974
 20
12.310084
 30
0.0
 10
46.847776
 20
12.706957
 30
0.0
 10
47.075152
 20
13.223721
 30
0.0
 10
47.166103
 20
13.860374
 30
0.0
  0
SPLINE
  5
126
100
AcDbEntity
  8
Layer_1
 62
7
100
AcDbSpline
 70
8
 71
3
 72
8
 73
4
 74
0
 40
0
 40
0
 40
0
 40
0
 40
1
 40
1
 40
1
 40
1
 10
47.166103
 20
13.860374
 30
0.0
 10
47.240517
 20
14.455687
 30
0.0
 10
47.178505
 20
14.931111
 30
0.0
 10
46.980068
 20
15.286644
 30
0.0
  0
SPLINE
  5
127
100
AcDbEntity
  8
Layer_1
 62
7
100
AcDbSpline
 70
8
 71
3
 72
8
 73
4
 74
0
 40
0
 40
0
 40
0
 40
0
 40
1
 40
1
 40
1
 40
1
 10
46.980068
 20
15.286644
 30
0.0
 10
46.789899
 20
15.642177
 30
0.0
 10
46.492242
 20
15.898491
 30
0.0
 10
46.087099
 20
16.055584
 30
0.0
  0
SPLINE
  5
128
100
AcDbEntity
  8
Layer_1
 62
7
100
AcDbSpline
 70
8
 71
3
 72
8
 73
4
 74
0
 40
0
 40
0
 40
0
 40
0
 40
1
 40
1
 40
1
 40
1
 10
46.087099
 20
16.055584
 30
0.0
 10
45.681956
 20
16.220951
 30
0.0
 10
45.206533
 20
16.307767
 30
0.0
 10
44.660830
 20
16.316034
 30
0.0
  0
LWPOLYLINE
  5
129
100
AcDbEntity
  8
Layer_1
 62
7
100
AcDbPolyline
 90
4
 70
0
 10
43.978701
 20
8.911834
 30
0.0
 10
39.365029
 20
8.911834
 30
0.0
 10
39.737099
 20
11.181464
 30
0.0
 10
43.470205
 20
11.169064
 30
0.0
  0
SPLINE
  5
12a
100
AcDbEntity
  8
Layer_1
 62
7
100
AcDbSpline
 70
8
 71
3
 72
8
 73
4
 74
0
 40
0
 40
0
 40
0
 40
0
 40
1
 40
1
 40
1
 40
1
 10
44.735244
 20
18.796494
 30
0.0
 10
45.504189
 20
18.779961
 30
0.0
 10
46.231793
 20
18.680744
 30
0.0
 10
46.918056
 20
18.498844
 30
0.0
  0
SPLINE
  5
12b
100
AcDbEntity
  8
Layer_1
 62
7
100
AcDbSpline
 70
8
 71
3
 72
8
 73
4
 74
0
 40
0
 40
0
 40
0
 40
0
 40
1
 40
1
 40
1
 40
1
 10
46.918056
 20
18.498844
 30
0.0
 10
47.604319
 20
18.325211
 30
0.0
 10
48.203766
 20
18.052357
 30
0.0
 10
48.716396
 20
17.680284
 30
0.0
  0
SPLINE
  5
12c
100
AcDbEntity
  8
Layer_1
 62
7
100
AcDbSpline
 70
8
 71
3
 72
8
 73
4
 74
0
 40
0
 40
0
 40
0
 40
0
 40
1
 40
1
 40
1
 40
1
 10
48.716396
 20
17.680284
 30
0.0
 10
49.237295
 20
17.308217
 30
0.0
 10
49.634170
 20
16.820391
 30
0.0
 10
49.907021
 20
16.216804
 30
0.0
  0
SPLINE
  5
12d
100
AcDbEntity
  8
Layer_1
 62
7
100
AcDbSpline
 70
8
 71
3
 72
8
 73
4
 74
0
 40
0
 40
0
 40
0
 40
0
 40
1
 40
1
 40
1
 40
1
 10
49.907021
 20
16.216804
 30
0.0
 10
50.188141
 20
15.621497
 30
0.0
 10
50.299762
 20
14.889761
 30
0.0
 10
50.241884
 20
14.021594
 30
0.0
  0
SPLINE
  5
12e
100
AcDbEntity
  8
Layer_1
 62
7
100
AcDbSpline
 70
8
 71
3
 72
8
 73
4
 74
0
 40
0
 40
0
 40
0
 40
0
 40
1
 40
1
 40
1
 40
1
 10
50.241884
 20
14.021594
 30
0.0
 10
50.175737
 20
13.095554
 30
0.0
 10
49.894618
 20
12.322474
 30
0.0
 10
49.398525
 20
11.702354
 30
0.0
  0
SPLINE
  5
12f
100
AcDbEntity
  8
Layer_1
 62
7
100
AcDbSpline
 70
8
 71
3
 72
8
 73
4
 74
0
 40
0
 40
0
 40
0
 40
0
 40
1
 40
1
 40
1
 40
1
 10
49.398525
 20
11.702354
 30
0.0
 10
48.902431
 20
11.090507
 30
0.0
 10
48.269912
 20
10.619217
 30
0.0
 10
47.500967
 20
10.288484
 30
0.0
  0
SPLINE
  5
130
100
AcDbEntity
  8
Layer_1
 62
7
100
AcDbSpline
 70
8
 71
3
 72
8
 73
4
 74
0
 40
0
 40
0
 40
0
 40
0
 40
1
 40
1
 40
1
 40
1
 10
47.500967
 20
10.288484
 30
0.0
 10
46.740290
 20
9.966024
 30
0.0
 10
45.938271
 20
9.763454
 30
0.0
 10
45.094912
 20
9.680774
 30
0.0
  0
LWPOLYLINE
  5
131
100
AcDbEntity
  8
Layer_1
 62
7
100
AcDbPolyline
 90
6
 70
0
 10
44.660830
 20
16.316034
 30
0.0
 10
41.585049
 20
16.328434
 30
0.0
 10
38.881338
 20
0.751084
 30
0.0
 10
35.830361
 20
0.751084
 30
0.0
 10
38.968154
 20
18.808894
 30
0.0
 10
44.735244
 20
18.796494
 30
0.0
  0
LWPOLYLINE
  5
132
100
AcDbEntity
  8
Layer_1
 62
7
100
AcDbPolyline
 90
2
 70
0
 10
45.094912
 20
9.680774
 30
0.0
 10
43.978701
 20
8.911834
 30
0.0
  0
SPLINE
  5
133
100
AcDbEntity
  8
Layer_1
 62
7
100
AcDbSpline
 70
8
 71
3
 72
8
 73
4
 74
0
 40
0
 40
0
 40
0
 40
0
 40
1
 40
1
 40
1
 40
1
 10
42.564834
 20
3.206764
 30
0.0
 10
43.184951
 20
3.206764
 30
0.0
 10
43.759593
 20
3.314251
 30
0.0
 10
44.288760
 20
3.529224
 30
0.0
  0
SPLINE
  5
134
100
AcDbEntity
  8
Layer_1
 62
7
100
AcDbSpline
 70
8
 71
3
 72
8
 73
4
 74
0
 40
0
 40
0
 40
0
 40
0
 40
1
 40
1
 40
1
 40
1
 10
44.288760
 20
3.529224
 30
0.0
 10
44.817927
 20
3.744197
 30
0.0
 10
45.256143
 20
4.066657
 30
0.0
 10
45.603408
 20
4.496604
 30
0.0
  0
SPLINE
  5
135
100
AcDbEntity
  8
Layer_1
 62
7
100
AcDbSpline
 70
8
 71
3
 72
8
 73
4
 74
0
 40
0
 40
0
 40
0
 40
0
 40
1
 40
1
 40
1
 40
1
 10
45.603408
 20
4.496604
 30
0.0
 10
45.958942
 20
4.934817
 30
0.0
 10
46.182184
 20
5.472251
 30
0.0
 10
46.273135
 20
6.108904
 30
0.0
  0
SPLINE
  5
136
100
AcDbEntity
  8
Layer_1
 62
7
100
AcDbSpline
 70
8
 71
3
 72
8
 73
4
 74
0
 40
0
 40
0
 40
0
 40
0
 40
1
 40
1
 40
1
 40
1
 10
46.273135
 20
6.108904
 30
0.0
 10
46.347549
 20
6.671144
 30
0.0
 10
46.314476
 20
7.154837
 30
0.0
 10
46.173915
 20
7.559984
 30
0.0
  0
SPLINE
  5
137
100
AcDbEntity
  8
Layer_1
 62
7
100
AcDbSpline
 70
8
 71
3
 72
8
 73
4
 74
0
 40
0
 40
0
 40
0
 40
0
 40
1
 40
1
 40
1
 40
1
 10
46.173915
 20
7.559984
 30
0.0
 10
46.033355
 20
7.973397
 30
0.0
 10
45.781174
 20
8.291724
 30
0.0
 10
45.417372
 20
8.514964
 30
0.0
  0
SPLINE
  5
138
100
AcDbEntity
  8
Layer_1
 62
7
100
AcDbSpline
 70
8
 71
3
 72
8
 73
4
 74
0
 40
0
 40
0
 40
0
 40
0
 40
1
 40
1
 40
1
 40
1
 10
45.417372
 20
8.514964
 30
0.0
 10
45.053570
 20
8.746471
 30
0.0
 10
44.582281
 20
8.874627
 30
0.0
 10
44.003505
 20
8.899434
 30
0.0
  0
LWPOLYLINE
  5
139
100
AcDbEntity
  8
Layer_1
 62
7
100
AcDbPolyline
 90
4
 70
0
 10
42.478017
 20
0.751094
 30
0.0
 10
36.909365
 20
0.751094
 30
0.0
 10
38.695303
 20
3.219164
 30
0.0
 10
42.564834
 20
3.206764
 30
0.0
  0
SPLINE
  5
13a
100
AcDbEntity
  8
Layer_1
 62
7
100
AcDbSpline
 70
8
 71
3
 72
8
 73
4
 74
0
 40
0
 40
0
 40
0
 40
0
 40
1
 40
1
 40
1
 40
1
 10
45.665419
 20
10.313304
 30
0.0
 10
46.442632
 20
10.238891
 30
0.0
 10
47.108225
 20
10.015647
 30
0.0
 10
47.662196
 20
9.643574
 30
0.0
  0
SPLINE
  5
13b
100
AcDbEntity
  8
Layer_1
 62
7
100
AcDbSpline
 70
8
 71
3
 72
8
 73
4
 74
0
 40
0
 40
0
 40
0
 40
0
 40
1
 40
1
 40
1
 40
1
 10
47.662196
 20
9.643574
 30
0.0
 10
48.224435
 20
9.279774
 30
0.0
 10
48.641981
 20
8.796084
 30
0.0
 10
48.914833
 20
8.192504
 30
0.0
  0
SPLINE
  5
13c
100
AcDbEntity
  8
Layer_1
 62
7
100
AcDbSpline
 70
8
 71
3
 72
8
 73
4
 74
0
 40
0
 40
0
 40
0
 40
0
 40
1
 40
1
 40
1
 40
1
 10
48.914833
 20
8.192504
 30
0.0
 10
49.195952
 20
7.588924
 30
0.0
 10
49.311707
 20
6.894391
 30
0.0
 10
49.262098
 20
6.108904
 30
0.0
  0
SPLINE
  5
13d
100
AcDbEntity
  8
Layer_1
 62
7
100
AcDbSpline
 70
8
 71
3
 72
8
 73
4
 74
0
 40
0
 40
0
 40
0
 40
0
 40
1
 40
1
 40
1
 40
1
 10
49.262098
 20
6.108904
 30
0.0
 10
49.171148
 20
4.868671
 30
0.0
 10
48.803212
 20
3.851681
 30
0.0
 10
48.158290
 20
3.057934
 30
0.0
  0
SPLINE
  5
13e
100
AcDbEntity
  8
Layer_1
 62
7
100
AcDbSpline
 70
8
 71
3
 72
8
 73
4
 74
0
 40
0
 40
0
 40
0
 40
0
 40
1
 40
1
 40
1
 40
1
 10
48.158290
 20
3.057934
 30
0.0
 10
47.513368
 20
2.264181
 30
0.0
 10
46.690679
 20
1.677134
 30
0.0
 10
45.690223
 20
1.296794
 30
0.0
  0
SPLINE
  5
13f
100
AcDbEntity
  8
Layer_1
 62
7
100
AcDbSpline
 70
8
 71
3
 72
8
 73
4
 74
0
 40
0
 40
0
 40
0
 40
0
 40
1
 40
1
 40
1
 40
1
 10
45.690223
 20
1.296794
 30
0.0
 10
44.689768
 20
0.924727
 30
0.0
 10
43.619032
 20
0.742827
 30
0.0
 10
42.478016
 20
0.751094
 30
0.0
  0
LWPOLYLINE
  5
140
100
AcDbEntity
  8
Layer_1
 62
7
100
AcDbPolyline
 90
5
 70
0
 10
44.003505
 20
8.899434
 30
0.0
 10
40.431630
 20
8.911834
 30
0.0
 10
40.853309
 20
11.181464
 30
0.0
 10
45.144520
 20
11.169064
 30
0.0
 10
45.665419
 20
10.313304
 30
0.0
  0
SPLINE
  5
141
100
AcDbEntity
  8
Layer_1
 62
7
100
AcDbSpline
 70
8
 71
3
 72
8
 73
4
 74
0
 40
0
 40
0
 40
0
 40
0
 40
1
 40
1
 40
1
 40
1
 10
59.111613
 20
12.783851
 30
0.0
 10
56.627508
 20
12.783851
 30
0.0
 10
54.388005
 20
11.287462
 30
0.0
 10
53.437379
 20
8.992449
 30
0.0
  0
SPLINE
  5
142
100
AcDbEntity
  8
Layer_1
 62
7
100
AcDbSpline
 70
8
 71
3
 72
8
 73
4
 74
0
 40
0
 40
0
 40
0
 40
0
 40
1
 40
1
 40
1
 40
1
 10
53.437379
 20
8.992449
 30
0.0
 10
52.486753
 20
6.697435
 30
0.0
 10
53.012215
 20
4.055761
 30
0.0
 10
54.768742
 20
2.299233
 30
0.0
  0
SPLINE
  5
143
100
AcDbEntity
  8
Layer_1
 62
7
100
AcDbSpline
 70
8
 71
3
 72
8
 73
4
 74
0
 40
0
 40
0
 40
0
 40
0
 40
1
 40
1
 40
1
 40
1
 10
54.768742
 20
2.299233
 30
0.0
 10
56.525270
 20
0.542706
 30
0.0
 10
59.166944
 20
0.017244
 30
0.0
 10
61.461958
 20
0.967870
 30
0.0
  0
SPLINE
  5
144
100
AcDbEntity
  8
Layer_1
 62
7
100
AcDbSpline
 70
8
 71
3
 72
8
 73
4
 74
0
 40
0
 40
0
 40
0
 40
0
 40
1
 40
1
 40
1
 40
1
 10
61.461958
 20
0.967870
 30
0.0
 10
63.756971
 20
1.918496
 30
0.0
 10
65.253359
 20
4.157999
 30
0.0
 10
65.253359
 20
6.642104
 30
0.0
  0
SPLINE
  5
145
100
AcDbEntity
  8
Layer_1
 62
7
100
AcDbSpline
 70
8
 71
3
 72
8
 73
4
 74
0
 40
0
 40
0
 40
0
 40
0
 40
1
 40
1
 40
1
 40
1
 10
65.253359
 20
6.642104
 30
0.0
 10
65.253359
 20
10.034097
 30
0.0
 10
62.503606
 20
12.783851
 30
0.0
 10
59.111613
 20
12.783851
 30
0.0
  0
LWPOLYLINE
  5
146
100
AcDbEntity
  8
Layer_1
 62
7
100
AcDbPolyline
 90
1
 70
1
 10
42.478016
 20
0.751094
 30
0.0
  0
SPLINE
  5
147
100
AcDbEntity
  8
Layer_1
 62
7
100
AcDbSpline
 70
8
 71
3
 72
8
 73
4
 74
0
 40
0
 40
0
 40
0
 40
0
 40
1
 40
1
 40
1
 40
1
 10
59.111613
 20
10.003928
 30
0.0
 10
57.751882
 20
10.003928
 30
0.0
 10
56.526039
 20
9.184846
 30
0.0
 10
56.005692
 20
7.928618
 30
0.0
  0
SPLINE
  5
148
100
AcDbEntity
  8
Layer_1
 62
7
100
AcDbSpline
 70
8
 71
3
 72
8
 73
4
 74
0
 40
0
 40
0
 40
0
 40
0
 40
1
 40
1
 40
1
 40
1
 10
56.005692
 20
7.928618
 30
0.0
 10
55.485346
 20
6.672391
 30
0.0
 10
55.772969
 20
5.226410
 30
0.0
 10
56.734444
 20
4.264935
 30
0.0
  0
SPLINE
  5
149
100
AcDbEntity
  8
Layer_1
 62
7
100
AcDbSpline
 70
8
 71
3
 72
8
 73
4
 74
0
 40
0
 40
0
 40
0
 40
0
 40
1
 40
1
 40
1
 40
1
 10
56.734444
 20
4.264935
 30
0.0
 10
57.695919
 20
3.303460
 30
0.0
 10
59.141900
 20
3.015837
 30
0.0
 10
60.398127
 20
3.536183
 30
0.0
  0
SPLINE
  5
14a
100
AcDbEntity
  8
Layer_1
 62
7
100
AcDbSpline
 70
8
 71
3
 72
8
 73
4
 74
0
 40
0
 40
0
 40
0
 40
0
 40
1
 40
1
 40
1
 40
1
 10
60.398127
 20
3.536183
 30
0.0
 10
61.654355
 20
4.056530
 30
0.0
 10
62.473437
 20
5.282373
 30
0.0
 10
62.473437
 20
6.642104
 30
0.0
  0
SPLINE
  5
14b
100
AcDbEntity
  8
Layer_1
 62
7
100
AcDbSpline
 70
8
 71
3
 72
8
 73
4
 74
0
 40
0
 40
0
 40
0
 40
0
 40
1
 40
1
 40
1
 40
1
 10
62.473437
 20
6.642104
 30
0.0
 10
62.473437
 20
8.498788
 30
0.0
 10
60.968297
 20
10.003928
 30
0.0
 10
59.111613
 20
10.003928
 30
0.0
  0
LWPOLYLINE
  5
14c
100
AcDbEntity
  8
Layer_1
 62
7
100
AcDbPolyline
 90
1
 70
1
 10
59.111613
 20
12.783851
 30
0.0
  0
LWPOLYLINE
  5
14d
100
AcDbEntity
  8
Layer_1
 62
7
100
AcDbPolyline
 90
1
 70
1
 10
59.111613
 20
10.003928
 30
0.0
  0
ENDSEC
  0
SECTION
  2
OBJECTS
  0
DICTIONARY
  5
C
330
0
100
AcDbDictionary
  3
ACAD_GROUP
350
D
  3
ACAD_MLINESTYLE
350
17
  0
DICTIONARY
  5
D
330
C
100
AcDbDictionary
  0
DICTIONARY
  5
1A
330
C
100
AcDbDictionary
  0
DICTIONARY
  5
17
330
C
100
AcDbDictionary
  3
STANDARD
350
18
  0
DICTIONARY
  5
19
330
C
100
AcDbDictionary
  0
ENDSEC
  0
EOF
