999
"DXF R12 Output" (www.mydxf.blogspot.com)
 0 
SECTION
 2 
HEADER
 9 
$ACADVER
 1 
AC1009
 9 
$EXTMIN
 10 
 0 
 20 
 0 
 9 
$EXTMAX
 10 
 8.5 
 20 
 11 
 0 
ENDSEC
 0 
SECTION
 2 
ENTITIES
0
LINE
8
Layer 1
10
0.000000
20
43.288900
11
0.000000
21
0.000071
0
LINE
8
Layer 1
10
0.000000
20
0.000071
11
43.247991
21
0.000071
0
LINE
8
Layer 1
10
43.247991
20
0.000071
11
43.247991
21
43.288900
0
LINE
8
Layer 1
10
43.247991
20
43.288900
11
0.000000
21
43.288900
0
LINE
8
Layer 1
10
28.627801
20
38.061570
11
28.423609
21
37.857377
0
LINE
8
Layer 1
10
28.423609
20
37.857377
11
28.423609
21
37.775700
0
LINE
8
Layer 1
10
28.423609
20
37.775700
11
28.586963
21
37.571507
0
LINE
8
Layer 1
10
28.586963
20
37.571507
11
28.732556
21
37.399353
0
LINE
8
Layer 1
10
28.732556
20
37.399353
11
28.791155
21
37.081445
0
LINE
8
Layer 1
10
28.791155
20
37.081445
11
28.692559
21
36.750862
0
LINE
8
Layer 1
10
28.692559
20
36.750862
11
28.546124
21
36.509706
0
LINE
8
Layer 1
10
28.546124
20
36.509706
11
28.579839
21
36.255491
0
LINE
8
Layer 1
10
28.579839
20
36.255491
11
28.791155
21
36.142159
0
LINE
8
Layer 1
10
28.791155
20
36.142159
11
29.031286
21
36.275901
0
LINE
8
Layer 1
10
29.031286
20
36.275901
11
29.158703
21
36.550545
0
LINE
8
Layer 1
10
29.158703
20
36.550545
11
29.339792
21
36.779653
0
LINE
8
Layer 1
10
29.339792
20
36.779653
11
29.607925
21
36.918091
0
LINE
8
Layer 1
10
29.607925
20
36.918091
11
29.839884
21
37.096152
0
LINE
8
Layer 1
10
29.839884
20
37.096152
11
29.934635
21
37.367315
0
LINE
8
Layer 1
10
29.934635
20
37.367315
11
29.833816
21
37.540674
0
LINE
8
Layer 1
10
29.833816
20
37.540674
11
29.403733
21
37.734862
0
LINE
8
Layer 1
10
29.403733
20
37.734862
11
28.750316
21
38.061570
0
LINE
8
Layer 1
10
28.750316
20
38.061570
11
28.627867
21
38.061570
0
LINE
8
Layer 1
10
28.627867
20
38.061570
11
28.627801
21
38.061570
0
LINE
8
Layer 1
10
24.298919
20
37.857377
11
23.919329
21
37.672782
0
LINE
8
Layer 1
10
23.919329
20
37.672782
11
23.727179
21
37.448992
0
LINE
8
Layer 1
10
23.727179
20
37.448992
11
23.686407
21
37.367315
0
LINE
8
Layer 1
10
23.686407
20
37.367315
11
23.482212
21
37.122284
0
LINE
8
Layer 1
10
23.482212
20
37.122284
11
23.400535
21
36.754737
0
LINE
8
Layer 1
10
23.400535
20
36.754737
11
23.356767
21
36.378206
0
LINE
8
Layer 1
10
23.356767
20
36.378206
11
23.441310
21
36.060482
0
LINE
8
Layer 1
10
23.441310
20
36.060482
11
23.441310
21
35.366227
0
LINE
8
Layer 1
10
23.441310
20
35.366227
11
23.238518
21
34.877998
0
LINE
8
Layer 1
10
23.238518
20
34.877998
11
22.828732
21
34.631134
0
LINE
8
Layer 1
10
22.828732
20
34.631134
11
22.481196
21
34.559896
0
LINE
8
Layer 1
10
22.481196
20
34.559896
11
22.297830
21
34.222749
0
LINE
8
Layer 1
10
22.297830
20
34.222749
11
22.379507
21
33.651010
0
LINE
8
Layer 1
10
22.379507
20
33.651010
11
22.420282
21
33.283463
0
LINE
8
Layer 1
10
22.420282
20
33.283463
11
22.093572
21
32.425854
0
LINE
8
Layer 1
10
22.093572
20
32.425854
11
21.807703
21
31.527407
0
LINE
8
Layer 1
10
21.807703
20
31.527407
11
21.768718
21
31.131069
0
LINE
8
Layer 1
10
21.768718
20
31.131069
11
21.848476
21
30.792313
0
LINE
8
Layer 1
10
21.848476
20
30.792313
11
21.848476
21
29.077096
0
LINE
8
Layer 1
10
21.848476
20
29.077096
11
21.975654
21
28.708931
0
LINE
8
Layer 1
10
21.975654
20
28.708931
11
22.216024
21
28.464518
0
LINE
8
Layer 1
10
22.216024
20
28.464518
11
22.501893
21
28.219487
0
LINE
8
Layer 1
10
22.501893
20
28.219487
11
23.050563
21
28.251161
0
LINE
8
Layer 1
10
23.050563
20
28.251161
11
23.196148
21
28.546195
0
LINE
8
Layer 1
10
23.196148
20
28.546195
11
23.441178
21
29.036257
0
LINE
8
Layer 1
10
23.441178
20
29.036257
11
23.571760
21
29.280882
0
LINE
8
Layer 1
10
23.571760
20
29.280882
11
23.527756
21
29.592891
0
LINE
8
Layer 1
10
23.527756
20
29.592891
11
23.359501
21
29.975543
0
LINE
8
Layer 1
10
23.359501
20
29.975543
11
23.073633
21
30.710636
0
LINE
8
Layer 1
10
23.073633
20
30.710636
11
23.123506
21
30.938262
0
LINE
8
Layer 1
10
23.123506
20
30.938262
11
23.282725
21
31.098199
0
LINE
8
Layer 1
10
23.282725
20
31.098199
11
23.604532
21
31.282376
0
LINE
8
Layer 1
10
23.604532
20
31.282376
11
23.986572
21
31.665242
0
LINE
8
Layer 1
10
23.986572
20
31.665242
11
24.053756
21
32.017469
0
LINE
8
Layer 1
10
24.053756
20
32.017469
11
24.462140
21
33.446817
0
LINE
8
Layer 1
10
24.462140
20
33.446817
11
24.502915
21
35.407066
0
LINE
8
Layer 1
10
24.502915
20
35.407066
11
24.543687
21
35.570420
0
LINE
8
Layer 1
10
24.543687
20
35.570420
11
24.462011
21
36.019644
0
LINE
8
Layer 1
10
24.462011
20
36.019644
11
24.357925
21
36.359650
0
LINE
8
Layer 1
10
24.357925
20
36.359650
11
24.445272
21
36.678982
0
LINE
8
Layer 1
10
24.445272
20
36.678982
11
24.666203
21
37.285638
0
LINE
8
Layer 1
10
24.666203
20
37.285638
11
24.575799
21
37.639508
0
LINE
8
Layer 1
10
24.575799
20
37.639508
11
24.298657
21
37.857377
0
LINE
8
Layer 1
10
24.298657
20
37.857377
11
24.298919
21
37.857377
0
LINE
8
Layer 1
10
36.305442
20
37.081445
11
35.815381
21
36.918091
0
LINE
8
Layer 1
10
35.815381
20
36.918091
11
35.574661
21
36.645087
0
LINE
8
Layer 1
10
35.574661
20
36.645087
11
35.527669
21
36.439469
0
LINE
8
Layer 1
10
35.527669
20
36.439469
11
35.611189
21
36.264675
0
LINE
8
Layer 1
10
35.611189
20
36.264675
11
35.651961
21
36.142225
0
LINE
8
Layer 1
10
35.651961
20
36.142225
11
35.692734
21
35.529647
0
LINE
8
Layer 1
10
35.692734
20
35.529647
11
35.733508
21
34.917069
0
LINE
8
Layer 1
10
35.733508
20
34.917069
11
35.399045
21
34.711651
0
LINE
8
Layer 1
10
35.399045
20
34.711651
11
35.120930
21
34.386168
0
LINE
8
Layer 1
10
35.120930
20
34.386168
11
34.875900
21
33.814429
0
LINE
8
Layer 1
10
34.875900
20
33.814429
11
34.835125
21
33.365205
0
LINE
8
Layer 1
10
34.835125
20
33.365205
11
34.921575
21
32.983973
0
LINE
8
Layer 1
10
34.921575
20
32.983973
11
34.998478
21
32.711789
0
LINE
8
Layer 1
10
34.998478
20
32.711789
11
34.712610
21
32.099211
0
LINE
8
Layer 1
10
34.712610
20
32.099211
11
34.549256
21
31.609149
0
LINE
8
Layer 1
10
34.549256
20
31.609149
11
34.438962
21
31.218125
0
LINE
8
Layer 1
10
34.438962
20
31.218125
11
34.549256
21
30.833217
0
LINE
8
Layer 1
10
34.549256
20
30.833217
11
34.647677
21
30.503859
0
LINE
8
Layer 1
10
34.647677
20
30.503859
11
34.630933
21
30.016447
0
LINE
8
Layer 1
10
34.630933
20
30.016447
11
34.680759
21
29.619701
0
LINE
8
Layer 1
10
34.680759
20
29.619701
11
34.794286
21
29.444708
0
LINE
8
Layer 1
10
34.794286
20
29.444708
11
34.925990
21
29.382862
0
LINE
8
Layer 1
10
34.925990
20
29.382862
11
35.039317
21
29.199676
0
LINE
8
Layer 1
10
35.039317
20
29.199676
11
35.230669
21
28.932792
0
LINE
8
Layer 1
10
35.230669
20
28.932792
11
35.815249
21
28.750453
0
LINE
8
Layer 1
10
35.815249
20
28.750453
11
36.223635
21
28.995484
0
LINE
8
Layer 1
10
36.223635
20
28.995484
11
36.468666
21
29.444708
0
LINE
8
Layer 1
10
36.468666
20
29.444708
11
36.305312
21
29.853093
0
LINE
8
Layer 1
10
36.305312
20
29.853093
11
36.101120
21
30.261478
0
LINE
8
Layer 1
10
36.101120
20
30.261478
11
35.896925
21
30.669863
0
LINE
8
Layer 1
10
35.896925
20
30.669863
11
35.896925
21
32.017469
0
LINE
8
Layer 1
10
35.896925
20
32.017469
11
36.101120
21
32.466693
0
LINE
8
Layer 1
10
36.101120
20
32.466693
11
36.101120
21
33.038432
0
LINE
8
Layer 1
10
36.101120
20
33.038432
11
36.386989
21
33.405979
0
LINE
8
Layer 1
10
36.386989
20
33.405979
11
36.468666
21
34.059395
0
LINE
8
Layer 1
10
36.468666
20
34.059395
11
36.632019
21
34.508619
0
LINE
8
Layer 1
10
36.632019
20
34.508619
11
36.672794
21
35.039519
0
LINE
8
Layer 1
10
36.672794
20
35.039519
11
36.727837
21
35.353572
0
LINE
8
Layer 1
10
36.727837
20
35.353572
11
36.999501
21
35.733774
0
LINE
8
Layer 1
10
36.999501
20
35.733774
11
37.093429
21
36.372693
0
LINE
8
Layer 1
10
37.093429
20
36.372693
11
36.917824
21
36.836414
0
LINE
8
Layer 1
10
36.917824
20
36.836414
11
36.305246
21
37.081445
0
LINE
8
Layer 1
10
36.305246
20
37.081445
11
36.305442
21
37.081445
0
LINE
8
Layer 1
10
28.831993
20
34.059460
11
28.546124
21
33.937010
0
LINE
8
Layer 1
10
28.546124
20
33.937010
11
28.475878
21
33.852907
0
LINE
8
Layer 1
10
28.475878
20
33.852907
11
28.464448
21
33.651140
0
LINE
8
Layer 1
10
28.464448
20
33.651140
11
28.586897
21
33.242755
0
LINE
8
Layer 1
10
28.586897
20
33.242755
11
28.750250
21
32.916047
0
LINE
8
Layer 1
10
28.750250
20
32.916047
11
28.700428
21
32.657340
0
LINE
8
Layer 1
10
28.700428
20
32.657340
11
28.586897
21
32.507662
0
LINE
8
Layer 1
10
28.586897
20
32.507662
11
28.586693
21
32.110502
0
LINE
8
Layer 1
10
28.586693
20
32.110502
11
28.657402
21
31.918433
0
LINE
8
Layer 1
10
28.657402
20
31.918433
11
28.791089
21
31.854246
0
LINE
8
Layer 1
10
28.791089
20
31.854246
11
28.950347
21
32.190347
0
LINE
8
Layer 1
10
28.950347
20
32.190347
11
28.913540
21
32.671016
0
LINE
8
Layer 1
10
28.913540
20
32.671016
11
28.965584
21
33.011808
0
LINE
8
Layer 1
10
28.965584
20
33.011808
11
29.158571
21
33.324432
0
LINE
8
Layer 1
10
29.158571
20
33.324432
11
29.266399
21
33.660937
0
LINE
8
Layer 1
10
29.266399
20
33.660937
11
29.036122
21
33.977849
0
LINE
8
Layer 1
10
29.036122
20
33.977849
11
28.831930
21
34.059526
0
LINE
8
Layer 1
10
28.831930
20
34.059526
11
28.831993
21
34.059460
0
LINE
8
Layer 1
10
23.482149
20
33.773590
11
23.522921
21
33.773590
0
LINE
8
Layer 1
10
23.522921
20
33.773590
11
23.482149
21
33.651140
0
LINE
8
Layer 1
10
23.482149
20
33.651140
11
23.359697
21
33.487786
0
LINE
8
Layer 1
10
23.359697
20
33.487786
11
23.400472
21
33.651140
0
LINE
8
Layer 1
10
23.400472
20
33.651140
11
23.482149
21
33.773590
0
LINE
8
Layer 1
10
23.482149
20
33.773590
11
23.482149
21
33.773590
0
LINE
8
Layer 1
10
28.505286
20
30.751540
11
28.392373
21
30.583705
0
LINE
8
Layer 1
10
28.392373
20
30.583705
11
28.382834
21
30.465671
0
LINE
8
Layer 1
10
28.382834
20
30.465671
11
28.382834
21
30.302317
0
LINE
8
Layer 1
10
28.382834
20
30.302317
11
28.587029
21
30.098124
0
LINE
8
Layer 1
10
28.587029
20
30.098124
11
28.750383
21
29.730577
0
LINE
8
Layer 1
10
28.750383
20
29.730577
11
28.908913
21
29.484117
0
LINE
8
Layer 1
10
28.908913
20
29.484117
11
29.240443
21
29.444708
0
LINE
8
Layer 1
10
29.240443
20
29.444708
11
29.310352
21
29.623374
0
LINE
8
Layer 1
10
29.310352
20
29.623374
11
29.237376
21
29.855947
0
LINE
8
Layer 1
10
29.237376
20
29.855947
11
28.995413
21
30.220639
0
LINE
8
Layer 1
10
28.995413
20
30.220639
11
28.936990
21
30.495298
0
LINE
8
Layer 1
10
28.936990
20
30.495298
11
28.709544
21
30.751540
0
LINE
8
Layer 1
10
28.709544
20
30.751540
11
28.505350
21
30.751540
0
LINE
8
Layer 1
10
28.505350
20
30.751540
11
28.505286
21
30.751540
0
LINE
8
Layer 1
10
28.627735
20
29.526385
11
28.454374
21
29.476153
0
LINE
8
Layer 1
10
28.454374
20
29.476153
11
28.385150
21
29.319518
0
LINE
8
Layer 1
10
28.385150
20
29.319518
11
28.382705
21
29.077161
0
LINE
8
Layer 1
10
28.382705
20
29.077161
11
28.382705
21
28.382906
0
LINE
8
Layer 1
10
28.382705
20
28.382906
11
28.533734
21
28.180148
0
LINE
8
Layer 1
10
28.533734
20
28.180148
11
28.791089
21
28.137875
0
LINE
8
Layer 1
10
28.791089
20
28.137875
11
28.902375
21
28.063472
0
LINE
8
Layer 1
10
28.902375
20
28.063472
11
28.872768
21
27.933682
0
LINE
8
Layer 1
10
28.872768
20
27.933682
11
28.791089
21
27.566136
0
LINE
8
Layer 1
10
28.791089
20
27.566136
11
28.637335
21
27.232286
0
LINE
8
Layer 1
10
28.637335
20
27.232286
11
28.423543
21
27.076073
0
LINE
8
Layer 1
10
28.423543
20
27.076073
11
28.382771
21
26.218465
0
LINE
8
Layer 1
10
28.382771
20
26.218465
11
28.284345
21
25.905841
0
LINE
8
Layer 1
10
28.284345
20
25.905841
11
28.178576
21
25.687564
0
LINE
8
Layer 1
10
28.178576
20
25.687564
11
28.269739
21
25.481534
0
LINE
8
Layer 1
10
28.269739
20
25.481534
11
28.423609
21
25.401694
0
LINE
8
Layer 1
10
28.423609
20
25.401694
11
28.586963
21
25.728402
0
LINE
8
Layer 1
10
28.586963
20
25.728402
11
28.995347
21
26.300142
0
LINE
8
Layer 1
10
28.995347
20
26.300142
11
29.134200
21
26.567435
0
LINE
8
Layer 1
10
29.134200
20
26.567435
11
29.077026
21
26.831042
0
LINE
8
Layer 1
10
29.077026
20
26.831042
11
28.954574
21
27.116912
0
LINE
8
Layer 1
10
28.954574
20
27.116912
11
29.158766
21
27.566136
0
LINE
8
Layer 1
10
29.158766
20
27.566136
11
29.362961
21
28.056198
0
LINE
8
Layer 1
10
29.362961
20
28.056198
11
29.217798
21
28.348393
0
LINE
8
Layer 1
10
29.217798
20
28.348393
11
28.995413
21
28.546260
0
LINE
8
Layer 1
10
28.995413
20
28.546260
11
28.961680
21
28.696930
0
LINE
8
Layer 1
10
28.961680
20
28.696930
11
28.872964
21
28.913807
0
LINE
8
Layer 1
10
28.872964
20
28.913807
11
28.754719
21
29.076757
0
LINE
8
Layer 1
10
28.754719
20
29.076757
11
28.750512
21
29.281353
0
LINE
8
Layer 1
10
28.750512
20
29.281353
11
28.628063
21
29.526385
0
LINE
8
Layer 1
10
28.628063
20
29.526385
11
28.627735
21
29.526385
0
LINE
8
Layer 1
10
37.693886
20
26.504334
11
37.367179
21
26.463561
0
LINE
8
Layer 1
10
37.367179
20
26.463561
11
36.468732
21
26.300207
0
LINE
8
Layer 1
10
36.468732
20
26.300207
11
36.097101
21
26.223227
0
LINE
8
Layer 1
10
36.097101
20
26.223227
11
35.896992
21
26.096014
0
LINE
8
Layer 1
10
35.896992
20
26.096014
11
35.243575
21
25.891822
0
LINE
8
Layer 1
10
35.243575
20
25.891822
11
34.671837
21
25.728468
0
LINE
8
Layer 1
10
34.671837
20
25.728468
11
34.076616
21
25.427289
0
LINE
8
Layer 1
10
34.076616
20
25.427289
11
33.732552
21
25.034213
0
LINE
8
Layer 1
10
33.732552
20
25.034213
11
33.650872
21
24.299120
0
LINE
8
Layer 1
10
33.650872
20
24.299120
11
33.528423
21
23.809057
0
LINE
8
Layer 1
10
33.528423
20
23.809057
11
33.691777
21
23.318995
0
LINE
8
Layer 1
10
33.691777
20
23.318995
11
33.936807
21
22.869772
0
LINE
8
Layer 1
10
33.936807
20
22.869772
11
34.059259
21
22.379709
0
LINE
8
Layer 1
10
34.059259
20
22.379709
11
34.214445
21
21.987655
0
LINE
8
Layer 1
10
34.214445
20
21.987655
11
34.345128
21
21.889647
0
LINE
8
Layer 1
10
34.345128
20
21.889647
11
34.753514
21
22.379709
0
LINE
8
Layer 1
10
34.753514
20
22.379709
11
35.080221
21
22.788094
0
LINE
8
Layer 1
10
35.080221
20
22.788094
11
34.919299
21
23.191982
0
LINE
8
Layer 1
10
34.919299
20
23.191982
11
34.998544
21
23.564026
0
LINE
8
Layer 1
10
34.998544
20
23.564026
11
35.142468
21
23.859906
0
LINE
8
Layer 1
10
35.142468
20
23.859906
11
35.120996
21
24.054088
0
LINE
8
Layer 1
10
35.120996
20
24.054088
11
35.120996
21
24.421635
0
LINE
8
Layer 1
10
35.120996
20
24.421635
11
35.356404
21
24.646043
0
LINE
8
Layer 1
10
35.356404
20
24.646043
11
35.651895
21
24.707505
0
LINE
8
Layer 1
10
35.651895
20
24.707505
11
36.632019
21
24.870859
0
LINE
8
Layer 1
10
36.632019
20
24.870859
11
36.816814
21
24.700971
0
LINE
8
Layer 1
10
36.816814
20
24.700971
11
36.836214
21
24.462474
0
LINE
8
Layer 1
10
36.836214
20
24.462474
11
36.917890
21
23.686542
0
LINE
8
Layer 1
10
36.917890
20
23.686542
11
36.767197
21
23.418228
0
LINE
8
Layer 1
10
36.767197
20
23.418228
11
36.427827
21
23.318995
0
LINE
8
Layer 1
10
36.427827
20
23.318995
11
36.260793
21
23.065164
0
LINE
8
Layer 1
10
36.260793
20
23.065164
11
36.223635
21
22.788094
0
LINE
8
Layer 1
10
36.223635
20
22.788094
11
35.815249
21
22.706417
0
LINE
8
Layer 1
10
35.815249
20
22.706417
11
35.707028
21
22.317659
0
LINE
8
Layer 1
10
35.707028
20
22.317659
11
35.733572
21
21.767131
0
LINE
8
Layer 1
10
35.733572
20
21.767131
11
35.661186
21
21.661164
0
LINE
8
Layer 1
10
35.661186
20
21.661164
11
35.447703
21
21.644681
0
LINE
8
Layer 1
10
35.447703
20
21.644681
11
35.277004
21
21.561044
0
LINE
8
Layer 1
10
35.277004
20
21.561044
11
35.243511
21
21.481328
0
LINE
8
Layer 1
10
35.243511
20
21.481328
11
35.080155
21
20.991265
0
LINE
8
Layer 1
10
35.080155
20
20.991265
11
34.712610
21
20.297010
0
LINE
8
Layer 1
10
34.712610
20
20.297010
11
34.018354
21
19.643593
0
LINE
8
Layer 1
10
34.018354
20
19.643593
11
33.769925
21
19.328345
0
LINE
8
Layer 1
10
33.769925
20
19.328345
11
33.364938
21
19.071856
0
LINE
8
Layer 1
10
33.364938
20
19.071856
11
33.099084
21
18.730013
0
LINE
8
Layer 1
10
33.099084
20
18.730013
11
32.874877
21
18.377600
0
LINE
8
Layer 1
10
32.874877
20
18.377600
11
32.604520
21
18.222413
0
LINE
8
Layer 1
10
32.604520
20
18.222413
11
32.589006
21
18.091729
0
LINE
8
Layer 1
10
32.589006
20
18.091729
11
32.619838
21
17.917559
0
LINE
8
Layer 1
10
32.619838
20
17.917559
11
32.874877
21
17.805860
0
LINE
8
Layer 1
10
32.874877
20
17.805860
11
33.324099
21
17.846633
0
LINE
8
Layer 1
10
33.324099
20
17.846633
11
34.140870
21
17.683279
0
LINE
8
Layer 1
10
34.140870
20
17.683279
11
34.916802
21
17.519925
0
LINE
8
Layer 1
10
34.916802
20
17.519925
11
35.529380
21
17.479153
0
LINE
8
Layer 1
10
35.529380
20
17.479153
11
36.632019
21
17.519925
0
LINE
8
Layer 1
10
36.632019
20
17.519925
11
37.489628
21
17.642375
0
LINE
8
Layer 1
10
37.489628
20
17.642375
11
37.816338
21
17.764826
0
LINE
8
Layer 1
10
37.816338
20
17.764826
11
38.183883
21
17.642375
0
LINE
8
Layer 1
10
38.183883
20
17.642375
11
38.398700
21
17.740773
0
LINE
8
Layer 1
10
38.398700
20
17.740773
11
38.510593
21
17.969084
0
LINE
8
Layer 1
10
38.510593
20
17.969084
11
38.928594
21
18.154077
0
LINE
8
Layer 1
10
38.928594
20
18.154077
11
39.409040
21
18.214115
0
LINE
8
Layer 1
10
39.409040
20
18.214115
11
39.618541
21
18.237198
0
LINE
8
Layer 1
10
39.618541
20
18.237198
11
39.776585
21
18.418306
0
LINE
8
Layer 1
10
39.776585
20
18.418306
11
39.708380
21
18.650673
0
LINE
8
Layer 1
10
39.708380
20
18.650673
11
39.490717
21
18.826693
0
LINE
8
Layer 1
10
39.490717
20
18.826693
11
39.327363
21
19.275915
0
LINE
8
Layer 1
10
39.327363
20
19.275915
11
39.187902
21
19.477459
0
LINE
8
Layer 1
10
39.187902
20
19.477459
11
39.000653
21
19.520948
0
LINE
8
Layer 1
10
39.000653
20
19.520948
11
38.469754
21
19.357595
0
LINE
8
Layer 1
10
38.469754
20
19.357595
11
38.347303
21
19.235143
0
LINE
8
Layer 1
10
38.347303
20
19.235143
11
38.102272
21
19.316820
0
LINE
8
Layer 1
10
38.102272
20
19.316820
11
36.958792
21
19.235143
0
LINE
8
Layer 1
10
36.958792
20
19.235143
11
36.551428
21
19.190433
0
LINE
8
Layer 1
10
36.551428
20
19.190433
11
36.223701
21
19.112694
0
LINE
8
Layer 1
10
36.223701
20
19.112694
11
36.232481
21
18.851939
0
LINE
8
Layer 1
10
36.232481
20
18.851939
11
36.019507
21
18.663469
0
LINE
8
Layer 1
10
36.019507
20
18.663469
11
35.795503
21
18.753921
0
LINE
8
Layer 1
10
35.795503
20
18.753921
11
35.692800
21
18.990179
0
LINE
8
Layer 1
10
35.692800
20
18.990179
11
35.627331
21
19.120273
0
LINE
8
Layer 1
10
35.627331
20
19.120273
11
35.488608
21
19.153532
0
LINE
8
Layer 1
10
35.488608
20
19.153532
11
35.391207
21
19.371401
0
LINE
8
Layer 1
10
35.391207
20
19.371401
11
35.488608
21
19.602755
0
LINE
8
Layer 1
10
35.488608
20
19.602755
11
35.856153
21
19.766108
0
LINE
8
Layer 1
10
35.856153
20
19.766108
11
35.896925
21
19.970303
0
LINE
8
Layer 1
10
35.896925
20
19.970303
11
35.733572
21
20.011075
0
LINE
8
Layer 1
10
35.733572
20
20.011075
11
35.978605
21
20.174429
0
LINE
8
Layer 1
10
35.978605
20
20.174429
11
36.305312
21
20.623653
0
LINE
8
Layer 1
10
36.305312
20
20.623653
11
36.958729
21
21.522100
0
LINE
8
Layer 1
10
36.958729
20
21.522100
11
37.448789
21
22.298032
0
LINE
8
Layer 1
10
37.448789
20
22.298032
11
37.571241
21
22.828933
0
LINE
8
Layer 1
10
37.571241
20
22.828933
11
37.665014
21
23.176270
0
LINE
8
Layer 1
10
37.665014
20
23.176270
11
37.938787
21
23.318995
0
LINE
8
Layer 1
10
37.938787
20
23.318995
11
38.127865
21
23.518486
0
LINE
8
Layer 1
10
38.127865
20
23.518486
11
38.142981
21
23.890734
0
LINE
8
Layer 1
10
38.142981
20
23.890734
11
38.265430
21
24.176604
0
LINE
8
Layer 1
10
38.265430
20
24.176604
11
38.347107
21
24.748343
0
LINE
8
Layer 1
10
38.347107
20
24.748343
11
38.454079
21
24.986641
0
LINE
8
Layer 1
10
38.454079
20
24.986641
11
38.428784
21
25.238406
0
LINE
8
Layer 1
10
38.428784
20
25.238406
11
38.142915
21
25.728468
0
LINE
8
Layer 1
10
38.142915
20
25.728468
11
38.061238
21
26.259368
0
LINE
8
Layer 1
10
38.061238
20
26.259368
11
37.898877
21
26.474388
0
LINE
8
Layer 1
10
37.898877
20
26.474388
11
37.693690
21
26.504400
0
LINE
8
Layer 1
10
37.693690
20
26.504400
11
37.693886
21
26.504334
0
LINE
8
Layer 1
10
36.223701
20
25.197502
11
36.346150
21
25.197502
0
LINE
8
Layer 1
10
36.346150
20
25.197502
11
36.223701
21
25.075052
0
LINE
8
Layer 1
10
36.223701
20
25.075052
11
36.223701
21
25.197502
0
LINE
8
Layer 1
10
36.223701
20
25.197502
11
36.223701
21
25.197502
0
LINE
8
Layer 1
10
34.835257
20
24.829890
11
34.916934
21
24.789116
0
LINE
8
Layer 1
10
34.916934
20
24.789116
11
34.794482
21
24.625762
0
LINE
8
Layer 1
10
34.794482
20
24.625762
11
34.631129
21
24.625762
0
LINE
8
Layer 1
10
34.631129
20
24.625762
11
34.590356
21
24.666536
0
LINE
8
Layer 1
10
34.590356
20
24.666536
11
34.753710
21
24.788986
0
LINE
8
Layer 1
10
34.753710
20
24.788986
11
34.835387
21
24.829759
0
LINE
8
Layer 1
10
34.835387
20
24.829759
11
34.835257
21
24.829890
0
LINE
8
Layer 1
10
28.178576
20
24.625697
11
28.043605
21
24.517290
0
LINE
8
Layer 1
10
28.043605
20
24.517290
11
28.015223
21
24.380666
0
LINE
8
Layer 1
10
28.015223
20
24.380666
11
28.178576
21
24.176473
0
LINE
8
Layer 1
10
28.178576
20
24.176473
11
28.334989
21
24.127075
0
LINE
8
Layer 1
10
28.334989
20
24.127075
11
28.464448
21
24.217247
0
LINE
8
Layer 1
10
28.464448
20
24.217247
11
28.495122
21
24.410009
0
LINE
8
Layer 1
10
28.495122
20
24.410009
11
28.423673
21
24.543955
0
LINE
8
Layer 1
10
28.423673
20
24.543955
11
28.178642
21
24.625632
0
LINE
8
Layer 1
10
28.178642
20
24.625632
11
28.178576
21
24.625697
0
LINE
8
Layer 1
10
24.788980
20
24.503247
11
24.540957
21
24.383410
0
LINE
8
Layer 1
10
24.540957
20
24.383410
11
24.503111
21
24.299054
0
LINE
8
Layer 1
10
24.503111
20
24.299054
11
24.584788
21
23.931508
0
LINE
8
Layer 1
10
24.584788
20
23.931508
11
24.911495
21
23.563961
0
LINE
8
Layer 1
10
24.911495
20
23.563961
11
25.294362
21
23.355281
0
LINE
8
Layer 1
10
25.294362
20
23.355281
11
25.401558
21
22.992222
0
LINE
8
Layer 1
10
25.401558
20
22.992222
11
25.304572
21
22.712483
0
LINE
8
Layer 1
10
25.304572
20
22.712483
11
25.115689
21
22.542998
0
LINE
8
Layer 1
10
25.115689
20
22.542998
11
25.074915
21
21.685389
0
LINE
8
Layer 1
10
25.074915
20
21.685389
11
24.866848
21
21.130598
0
LINE
8
Layer 1
10
24.866848
20
21.130598
11
24.870723
21
20.501072
0
LINE
8
Layer 1
10
24.870723
20
20.501072
11
24.774013
21
20.216376
0
LINE
8
Layer 1
10
24.774013
20
20.216376
11
24.545629
21
20.074717
0
LINE
8
Layer 1
10
24.545629
20
20.074717
11
23.931437
21
20.011009
0
LINE
8
Layer 1
10
23.931437
20
20.011009
11
23.196344
21
19.643463
0
LINE
8
Layer 1
10
23.196344
20
19.643463
11
22.803073
21
19.419464
0
LINE
8
Layer 1
10
22.803073
20
19.419464
11
22.338735
21
19.439271
0
LINE
8
Layer 1
10
22.338735
20
19.439271
11
22.039189
21
19.726366
0
LINE
8
Layer 1
10
22.039189
20
19.726366
11
21.848671
21
20.133527
0
LINE
8
Layer 1
10
21.848671
20
20.133527
11
21.848671
21
20.623587
0
LINE
8
Layer 1
10
21.848671
20
20.623587
11
22.093704
21
21.358681
0
LINE
8
Layer 1
10
22.093704
20
21.358681
11
22.250315
21
21.662724
0
LINE
8
Layer 1
10
22.250315
20
21.662724
11
22.542927
21
22.012097
0
LINE
8
Layer 1
10
22.542927
20
22.012097
11
22.933957
21
22.258587
0
LINE
8
Layer 1
10
22.933957
20
22.258587
11
23.073828
21
22.420482
0
LINE
8
Layer 1
10
23.073828
20
22.420482
11
23.461767
21
22.615920
0
LINE
8
Layer 1
10
23.461767
20
22.615920
11
23.712333
21
22.892372
0
LINE
8
Layer 1
10
23.712333
20
22.892372
11
23.849760
21
23.563961
0
LINE
8
Layer 1
10
23.849760
20
23.563961
11
23.523051
21
24.258216
0
LINE
8
Layer 1
10
23.523051
20
24.258216
11
23.231591
21
24.275878
0
LINE
8
Layer 1
10
23.231591
20
24.275878
11
22.802455
21
24.121407
0
LINE
8
Layer 1
10
22.802455
20
24.121407
11
22.012028
21
23.727315
0
LINE
8
Layer 1
10
22.012028
20
23.727315
11
21.727178
21
23.619526
0
LINE
8
Layer 1
10
21.727178
20
23.619526
11
21.521964
21
23.359768
0
LINE
8
Layer 1
10
21.521964
20
23.359768
11
21.257530
21
22.975279
0
LINE
8
Layer 1
10
21.257530
20
22.975279
11
21.072739
21
22.665513
0
LINE
8
Layer 1
10
21.072739
20
22.665513
11
20.809939
21
22.137467
0
LINE
8
Layer 1
10
20.809939
20
22.137467
11
20.460161
21
21.807905
0
LINE
8
Layer 1
10
20.460161
20
21.807905
11
20.282111
21
21.529800
0
LINE
8
Layer 1
10
20.282111
20
21.529800
11
20.378484
21
21.072812
0
LINE
8
Layer 1
10
20.378484
20
21.072812
11
20.421442
21
20.724359
0
LINE
8
Layer 1
10
20.421442
20
20.724359
11
20.317840
21
20.345891
0
LINE
8
Layer 1
10
20.317840
20
20.345891
11
20.010939
21
19.765979
0
LINE
8
Layer 1
10
20.010939
20
19.765979
11
19.916984
21
19.550885
0
LINE
8
Layer 1
10
19.916984
20
19.550885
11
19.923339
21
19.223842
0
LINE
8
Layer 1
10
19.923339
20
19.223842
11
20.157268
21
18.769692
0
LINE
8
Layer 1
10
20.157268
20
18.769692
11
20.746032
21
18.173276
0
LINE
8
Layer 1
10
20.746032
20
18.173276
11
21.957302
21
17.427561
0
LINE
8
Layer 1
10
21.957302
20
17.427561
11
22.992152
21
17.397344
0
LINE
8
Layer 1
10
22.992152
20
17.397344
11
23.605341
21
17.634872
0
LINE
8
Layer 1
10
23.605341
20
17.634872
11
24.158499
21
18.111611
0
LINE
8
Layer 1
10
24.158499
20
18.111611
11
24.952399
21
18.867531
0
LINE
8
Layer 1
10
24.952399
20
18.867531
11
25.358126
21
19.172186
0
LINE
8
Layer 1
10
25.358126
20
19.172186
11
25.483301
21
19.765979
0
LINE
8
Layer 1
10
25.483301
20
19.765979
11
25.676646
21
20.357325
0
LINE
8
Layer 1
10
25.676646
20
20.357325
11
25.932523
21
20.909456
0
LINE
8
Layer 1
10
25.932523
20
20.909456
11
25.856764
21
21.386047
0
LINE
8
Layer 1
10
25.856764
20
21.386047
11
25.728331
21
21.644551
0
LINE
8
Layer 1
10
25.728331
20
21.644551
11
25.850783
21
22.012097
0
LINE
8
Layer 1
10
25.850783
20
22.012097
11
25.810008
21
22.706352
0
LINE
8
Layer 1
10
25.810008
20
22.706352
11
25.891685
21
23.155576
0
LINE
8
Layer 1
10
25.891685
20
23.155576
11
25.933341
21
23.606229
0
LINE
8
Layer 1
10
25.933341
20
23.606229
11
25.891685
21
23.849831
0
LINE
8
Layer 1
10
25.891685
20
23.849831
11
25.792652
21
24.145292
0
LINE
8
Layer 1
10
25.792652
20
24.145292
11
25.585013
21
24.365999
0
LINE
8
Layer 1
10
25.585013
20
24.365999
11
25.197430
21
24.503247
0
LINE
8
Layer 1
10
25.197430
20
24.503247
11
24.789046
21
24.503247
0
LINE
8
Layer 1
10
24.789046
20
24.503247
11
24.788980
21
24.503247
0
LINE
8
Layer 1
10
37.408083
20
24.176539
11
37.612280
21
24.094886
0
LINE
8
Layer 1
10
37.612280
20
24.094886
11
37.693952
21
23.890669
0
LINE
8
Layer 1
10
37.693952
20
23.890669
11
37.612250
21
23.666052
0
LINE
8
Layer 1
10
37.612250
20
23.666052
11
37.408083
21
23.563961
0
LINE
8
Layer 1
10
37.408083
20
23.563961
11
37.203890
21
23.666062
0
LINE
8
Layer 1
10
37.203890
20
23.666062
11
37.122212
21
23.890669
0
LINE
8
Layer 1
10
37.122212
20
23.890669
11
37.203865
21
24.094867
0
LINE
8
Layer 1
10
37.203865
20
24.094867
11
37.408083
21
24.176539
0
LINE
8
Layer 1
10
37.408083
20
24.176539
11
37.408083
21
24.176539
0
LINE
8
Layer 1
10
13.558387
20
24.094862
11
13.321973
21
23.964965
0
LINE
8
Layer 1
10
13.321973
20
23.964965
11
13.200766
21
23.758189
0
LINE
8
Layer 1
10
13.200766
20
23.758189
11
13.150003
21
23.482284
0
LINE
8
Layer 1
10
13.150003
20
23.482284
11
13.058124
21
23.301569
0
LINE
8
Layer 1
10
13.058124
20
23.301569
11
13.027551
21
22.992222
0
LINE
8
Layer 1
10
13.027551
20
22.992222
11
13.109228
21
22.502159
0
LINE
8
Layer 1
10
13.109228
20
22.502159
11
13.190905
21
22.175451
0
LINE
8
Layer 1
10
13.190905
20
22.175451
11
13.190905
21
21.971259
0
LINE
8
Layer 1
10
13.190905
20
21.971259
11
12.960163
21
21.882639
0
LINE
8
Layer 1
10
12.960163
20
21.882639
11
12.864197
21
21.644551
0
LINE
8
Layer 1
10
12.864197
20
21.644551
11
12.719426
21
21.467078
0
LINE
8
Layer 1
10
12.719426
20
21.467078
11
12.700844
21
21.317842
0
LINE
8
Layer 1
10
12.700844
20
21.317842
11
12.700844
21
20.337719
0
LINE
8
Layer 1
10
12.700844
20
20.337719
11
12.627159
21
20.184549
0
LINE
8
Layer 1
10
12.627159
20
20.184549
11
12.537490
21
19.970170
0
LINE
8
Layer 1
10
12.537490
20
19.970170
11
12.659939
21
19.643463
0
LINE
8
Layer 1
10
12.659939
20
19.643463
11
12.659939
21
19.112562
0
LINE
8
Layer 1
10
12.659939
20
19.112562
11
12.741616
21
18.867531
0
LINE
8
Layer 1
10
12.741616
20
18.867531
11
12.904970
21
18.622501
0
LINE
8
Layer 1
10
12.904970
20
18.622501
11
12.991729
21
18.540828
0
LINE
8
Layer 1
10
12.991729
20
18.540828
11
12.986649
21
18.459145
0
LINE
8
Layer 1
10
12.986649
20
18.459145
11
12.986649
21
17.805731
0
LINE
8
Layer 1
10
12.986649
20
17.805731
11
13.178259
21
17.246247
0
LINE
8
Layer 1
10
13.178259
20
17.246247
11
13.721740
21
17.029799
0
LINE
8
Layer 1
10
13.721740
20
17.029799
11
13.981092
21
17.161578
0
LINE
8
Layer 1
10
13.981092
20
17.161578
11
14.085005
21
17.462886
0
LINE
8
Layer 1
10
14.085005
20
17.462886
11
14.089288
21
18.009923
0
LINE
8
Layer 1
10
14.089288
20
18.009923
11
14.201186
21
18.213089
0
LINE
8
Layer 1
10
14.201186
20
18.213089
11
14.293480
21
18.459145
0
LINE
8
Layer 1
10
14.293480
20
18.459145
11
14.293480
21
19.520948
0
LINE
8
Layer 1
10
14.293480
20
19.520948
11
14.286333
21
19.827241
0
LINE
8
Layer 1
10
14.286333
20
19.827241
11
14.228011
21
20.037816
0
LINE
8
Layer 1
10
14.228011
20
20.037816
11
14.089288
21
20.133527
0
LINE
8
Layer 1
10
14.089288
20
20.133527
11
13.769113
21
19.990591
0
LINE
8
Layer 1
10
13.769113
20
19.990591
11
13.640063
21
19.847655
0
LINE
8
Layer 1
10
13.640063
20
19.847655
11
13.435871
21
19.847655
0
LINE
8
Layer 1
10
13.435871
20
19.847655
11
13.450369
21
20.126174
0
LINE
8
Layer 1
10
13.450369
20
20.126174
11
13.640063
21
20.419395
0
LINE
8
Layer 1
10
13.640063
20
20.419395
11
13.933279
21
20.476208
0
LINE
8
Layer 1
10
13.933279
20
20.476208
11
14.089288
21
20.746102
0
LINE
8
Layer 1
10
14.089288
20
20.746102
11
14.041303
21
21.174908
0
LINE
8
Layer 1
10
14.041303
20
21.174908
11
13.803419
21
21.603712
0
LINE
8
Layer 1
10
13.803419
20
21.603712
11
13.706459
21
21.942268
0
LINE
8
Layer 1
10
13.706459
20
21.942268
11
13.762645
21
22.052936
0
LINE
8
Layer 1
10
13.762645
20
22.052936
11
14.179806
21
22.530742
0
LINE
8
Layer 1
10
14.179806
20
22.530742
11
14.252708
21
22.788029
0
LINE
8
Layer 1
10
14.252708
20
22.788029
11
14.265368
21
23.071249
0
LINE
8
Layer 1
10
14.265368
20
23.071249
11
14.089354
21
23.686477
0
LINE
8
Layer 1
10
14.089354
20
23.686477
11
13.969522
21
23.965404
0
LINE
8
Layer 1
10
13.969522
20
23.965404
11
13.762645
21
24.094862
0
LINE
8
Layer 1
10
13.762645
20
24.094862
11
13.558453
21
24.094862
0
LINE
8
Layer 1
10
13.558453
20
24.094862
11
13.558387
21
24.094862
0
LINE
8
Layer 1
10
28.301094
20
23.645638
11
27.953557
21
23.363220
0
LINE
8
Layer 1
10
27.953557
20
23.363220
11
27.892708
21
23.155576
0
LINE
8
Layer 1
10
27.892708
20
23.155576
11
27.851935
21
23.073899
0
LINE
8
Layer 1
10
27.851935
20
23.073899
11
28.178642
21
22.951449
0
LINE
8
Layer 1
10
28.178642
20
22.951449
11
28.272613
21
22.861706
0
LINE
8
Layer 1
10
28.272613
20
22.861706
11
28.250494
21
22.702927
0
LINE
8
Layer 1
10
28.250494
20
22.702927
11
28.233287
21
22.556102
0
LINE
8
Layer 1
10
28.233287
20
22.556102
11
28.341996
21
22.502225
0
LINE
8
Layer 1
10
28.341996
20
22.502225
11
28.535771
21
22.417084
0
LINE
8
Layer 1
10
28.535771
20
22.417084
11
28.627867
21
22.379775
0
LINE
8
Layer 1
10
28.627867
20
22.379775
11
28.791221
21
22.706483
0
LINE
8
Layer 1
10
28.791221
20
22.706483
11
28.690121
21
23.213498
0
LINE
8
Layer 1
10
28.690121
20
23.213498
11
28.539653
21
23.541049
0
LINE
8
Layer 1
10
28.539653
20
23.541049
11
28.301158
21
23.645769
0
LINE
8
Layer 1
10
28.301158
20
23.645769
11
28.301094
21
23.645638
0
LINE
8
Layer 1
10
36.264603
20
21.317842
11
36.387055
21
21.236166
0
LINE
8
Layer 1
10
36.387055
20
21.236166
11
36.384783
21
21.128124
0
LINE
8
Layer 1
10
36.384783
20
21.128124
11
36.305378
21
21.072812
0
LINE
8
Layer 1
10
36.305378
20
21.072812
11
36.223701
21
21.195261
0
LINE
8
Layer 1
10
36.223701
20
21.195261
11
36.264474
21
21.317713
0
LINE
8
Layer 1
10
36.264474
20
21.317713
11
36.264603
21
21.317842
0
LINE
8
Layer 1
10
28.137738
20
21.154489
11
27.892708
21
20.868618
0
LINE
8
Layer 1
10
27.892708
20
20.868618
11
27.729354
21
20.460234
0
LINE
8
Layer 1
10
27.729354
20
20.460234
11
27.892708
21
20.174365
0
LINE
8
Layer 1
10
27.892708
20
20.174365
11
28.096900
21
19.725140
0
LINE
8
Layer 1
10
28.096900
20
19.725140
11
27.811031
21
19.316756
0
LINE
8
Layer 1
10
27.811031
20
19.316756
11
27.484324
21
18.704178
0
LINE
8
Layer 1
10
27.484324
20
18.704178
11
27.361872
21
18.132438
0
LINE
8
Layer 1
10
27.361872
20
18.132438
11
27.361872
21
17.438183
0
LINE
8
Layer 1
10
27.361872
20
17.438183
11
27.525226
21
17.111475
0
LINE
8
Layer 1
10
27.525226
20
17.111475
11
27.596506
21
16.841527
0
LINE
8
Layer 1
10
27.596506
20
16.841527
11
27.566001
21
16.662251
0
LINE
8
Layer 1
10
27.566001
20
16.662251
11
27.525226
21
15.600450
0
LINE
8
Layer 1
10
27.525226
20
15.600450
11
27.575205
21
15.274554
0
LINE
8
Layer 1
10
27.575205
20
15.274554
11
27.729420
21
15.110387
0
LINE
8
Layer 1
10
27.729420
20
15.110387
11
27.924419
21
14.944170
0
LINE
8
Layer 1
10
27.924419
20
14.944170
11
28.137804
21
14.947034
0
LINE
8
Layer 1
10
28.137804
20
14.947034
11
28.247014
21
15.189177
0
LINE
8
Layer 1
10
28.247014
20
15.189177
11
28.178576
21
15.477935
0
LINE
8
Layer 1
10
28.178576
20
15.477935
11
28.137804
21
16.784766
0
LINE
8
Layer 1
10
28.137804
20
16.784766
11
28.200083
21
17.105349
0
LINE
8
Layer 1
10
28.200083
20
17.105349
11
28.341996
21
17.315667
0
LINE
8
Layer 1
10
28.341996
20
17.315667
11
28.372655
21
17.828190
0
LINE
8
Layer 1
10
28.372655
20
17.828190
11
28.219547
21
18.254953
0
LINE
8
Layer 1
10
28.219547
20
18.254953
11
28.097095
21
18.540824
0
LINE
8
Layer 1
10
28.097095
20
18.540824
11
28.241865
21
18.960843
0
LINE
8
Layer 1
10
28.241865
20
18.960843
11
28.260452
21
19.235077
0
LINE
8
Layer 1
10
28.260452
20
19.235077
11
28.486487
21
19.520743
0
LINE
8
Layer 1
10
28.486487
20
19.520743
11
28.505482
21
19.643463
0
LINE
8
Layer 1
10
28.505482
20
19.643463
11
28.605932
21
20.035129
0
LINE
8
Layer 1
10
28.605932
20
20.035129
11
28.627931
21
20.419395
0
LINE
8
Layer 1
10
28.627931
20
20.419395
11
28.382901
21
20.909456
0
LINE
8
Layer 1
10
28.382901
20
20.909456
11
28.220538
21
21.139781
0
LINE
8
Layer 1
10
28.220538
20
21.139781
11
28.137870
21
21.154489
0
LINE
8
Layer 1
10
28.137870
20
21.154489
11
28.137738
21
21.154489
0
LINE
8
Layer 1
10
36.101250
20
14.742842
11
35.789851
21
14.612538
0
LINE
8
Layer 1
10
35.789851
20
14.612538
11
35.692866
21
14.416135
0
LINE
8
Layer 1
10
35.692866
20
14.416135
11
34.876095
21
13.517685
0
LINE
8
Layer 1
10
34.876095
20
13.517685
11
34.631062
21
13.272655
0
LINE
8
Layer 1
10
34.631062
20
13.272655
11
34.227987
21
12.939418
0
LINE
8
Layer 1
10
34.227987
20
12.939418
11
33.895969
21
12.537561
0
LINE
8
Layer 1
10
33.895969
20
12.537561
11
33.650939
21
11.720791
0
LINE
8
Layer 1
10
33.650939
20
11.720791
11
33.038360
21
10.781505
0
LINE
8
Layer 1
10
33.038360
20
10.781505
11
32.845608
21
10.389450
0
LINE
8
Layer 1
10
32.845608
20
10.389450
11
32.466623
21
10.046411
0
LINE
8
Layer 1
10
32.466623
20
10.046411
11
32.073960
21
9.855721
0
LINE
8
Layer 1
10
32.073960
20
9.855721
11
31.854044
21
9.638028
0
LINE
8
Layer 1
10
31.854044
20
9.638028
11
31.771117
21
9.248218
0
LINE
8
Layer 1
10
31.771117
20
9.248218
11
31.568176
21
8.739580
0
LINE
8
Layer 1
10
31.568176
20
8.739580
11
31.416055
21
8.460862
0
LINE
8
Layer 1
10
31.416055
20
8.460862
11
31.404819
21
8.127002
0
LINE
8
Layer 1
10
31.404819
20
8.127002
11
31.512634
21
7.806210
0
LINE
8
Layer 1
10
31.512634
20
7.806210
11
31.772368
21
7.677777
0
LINE
8
Layer 1
10
31.772368
20
7.677777
11
32.180751
21
7.881972
0
LINE
8
Layer 1
10
32.180751
20
7.881972
11
32.350666
21
7.733517
0
LINE
8
Layer 1
10
32.350666
20
7.733517
11
32.466623
21
7.473585
0
LINE
8
Layer 1
10
32.466623
20
7.473585
11
32.869897
21
7.478078
0
LINE
8
Layer 1
10
32.869897
20
7.478078
11
33.365070
21
7.636939
0
LINE
8
Layer 1
10
33.365070
20
7.636939
11
34.100163
21
7.841131
0
LINE
8
Layer 1
10
34.100163
20
7.841131
11
34.467709
21
7.759454
0
LINE
8
Layer 1
10
34.467709
20
7.759454
11
34.876095
21
7.228555
0
LINE
8
Layer 1
10
34.876095
20
7.228555
11
35.039449
21
6.983522
0
LINE
8
Layer 1
10
35.039449
20
6.983522
11
34.894390
21
6.919031
0
LINE
8
Layer 1
10
34.894390
20
6.919031
11
34.671901
21
6.942750
0
LINE
8
Layer 1
10
34.671901
20
6.942750
11
34.467709
21
6.289333
0
LINE
8
Layer 1
10
34.467709
20
6.289333
11
34.100163
21
5.840111
0
LINE
8
Layer 1
10
34.100163
20
5.840111
11
34.013357
21
5.470968
0
LINE
8
Layer 1
10
34.013357
20
5.470968
11
34.018487
21
5.105017
0
LINE
8
Layer 1
10
34.018487
20
5.105017
11
34.482212
21
4.692109
0
LINE
8
Layer 1
10
34.482212
20
4.692109
11
34.998611
21
4.369923
0
LINE
8
Layer 1
10
34.998611
20
4.369923
11
35.307757
21
4.227017
0
LINE
8
Layer 1
10
35.307757
20
4.227017
11
35.570348
21
4.084055
0
LINE
8
Layer 1
10
35.570348
20
4.084055
11
35.683031
21
4.171263
0
LINE
8
Layer 1
10
35.683031
20
4.171263
11
35.692800
21
4.247408
0
LINE
8
Layer 1
10
35.692800
20
4.247408
11
35.733572
21
4.941663
0
LINE
8
Layer 1
10
35.733572
20
4.941663
11
35.896925
21
5.431724
0
LINE
8
Layer 1
10
35.896925
20
5.431724
11
36.060282
21
5.758434
0
LINE
8
Layer 1
10
36.060282
20
5.758434
11
36.060282
21
7.146942
0
LINE
8
Layer 1
10
36.060282
20
7.146942
11
36.264474
21
7.677843
0
LINE
8
Layer 1
10
36.264474
20
7.677843
11
36.411365
21
7.819953
0
LINE
8
Layer 1
10
36.411365
20
7.819953
11
36.632019
21
7.800292
0
LINE
8
Layer 1
10
36.632019
20
7.800292
11
36.795375
21
7.596100
0
LINE
8
Layer 1
10
36.795375
20
7.596100
11
37.326274
21
7.636875
0
LINE
8
Layer 1
10
37.326274
20
7.636875
11
38.265560
21
7.841067
0
LINE
8
Layer 1
10
38.265560
20
7.841067
11
38.551431
21
7.963516
0
LINE
8
Layer 1
10
38.551431
20
7.963516
11
38.706872
21
8.124270
0
LINE
8
Layer 1
10
38.706872
20
8.124270
11
38.789110
21
8.472779
0
LINE
8
Layer 1
10
38.789110
20
8.472779
11
38.796461
21
9.106996
0
LINE
8
Layer 1
10
38.796461
20
9.106996
11
38.477518
21
9.238667
0
LINE
8
Layer 1
10
38.477518
20
9.238667
11
38.102206
21
9.229445
0
LINE
8
Layer 1
10
38.102206
20
9.229445
11
37.898014
21
9.106996
0
LINE
8
Layer 1
10
37.898014
20
9.106996
11
37.899468
21
8.932590
0
LINE
8
Layer 1
10
37.899468
20
8.932590
11
37.816338
21
8.780287
0
LINE
8
Layer 1
10
37.816338
20
8.780287
11
37.687090
21
8.834475
0
LINE
8
Layer 1
10
37.687090
20
8.834475
11
37.693886
21
8.984481
0
LINE
8
Layer 1
10
37.693886
20
8.984481
11
37.571437
21
9.229511
0
LINE
8
Layer 1
10
37.571437
20
9.229511
11
37.244730
21
9.188737
0
LINE
8
Layer 1
10
37.244730
20
9.188737
11
36.958858
21
9.107060
0
LINE
8
Layer 1
10
36.958858
20
9.107060
11
36.832700
21
9.181693
0
LINE
8
Layer 1
10
36.832700
20
9.181693
11
36.836409
21
9.311254
0
LINE
8
Layer 1
10
36.836409
20
9.311254
11
36.999763
21
9.801315
0
LINE
8
Layer 1
10
36.999763
20
9.801315
11
37.055193
21
10.095373
0
LINE
8
Layer 1
10
37.055193
20
10.095373
11
37.040535
21
10.536409
0
LINE
8
Layer 1
10
37.040535
20
10.536409
11
37.203889
21
11.026472
0
LINE
8
Layer 1
10
37.203889
20
11.026472
11
37.367245
21
11.394017
0
LINE
8
Layer 1
10
37.367245
20
11.394017
11
37.530603
21
11.678254
0
LINE
8
Layer 1
10
37.530603
20
11.678254
11
37.571437
21
11.884081
0
LINE
8
Layer 1
10
37.571437
20
11.884081
11
37.530665
21
12.414980
0
LINE
8
Layer 1
10
37.530665
20
12.414980
11
37.408213
21
12.619174
0
LINE
8
Layer 1
10
37.408213
20
12.619174
11
37.489890
21
12.945881
0
LINE
8
Layer 1
10
37.489890
20
12.945881
11
37.307528
21
13.155383
0
LINE
8
Layer 1
10
37.307528
20
13.155383
11
37.040668
21
13.190912
0
LINE
8
Layer 1
10
37.040668
20
13.190912
11
36.673119
21
13.435945
0
LINE
8
Layer 1
10
36.673119
20
13.435945
11
36.498336
21
13.708740
0
LINE
8
Layer 1
10
36.498336
20
13.708740
11
36.509766
21
13.966844
0
LINE
8
Layer 1
10
36.509766
20
13.966844
11
36.756640
21
14.311108
0
LINE
8
Layer 1
10
36.756640
20
14.311108
11
36.754796
21
14.579422
0
LINE
8
Layer 1
10
36.754796
20
14.579422
11
36.468927
21
14.661099
0
LINE
8
Layer 1
10
36.468927
20
14.661099
11
36.101379
21
14.742776
0
LINE
8
Layer 1
10
36.101379
20
14.742776
11
36.101250
21
14.742842
0
LINE
8
Layer 1
10
27.851869
20
14.538650
11
27.639300
21
14.327334
0
LINE
8
Layer 1
10
27.639300
20
14.327334
11
27.606839
21
14.171102
0
LINE
8
Layer 1
10
27.606839
20
14.171102
11
27.647611
21
14.089425
0
LINE
8
Layer 1
10
27.647611
20
14.089425
11
27.736410
21
13.939344
0
LINE
8
Layer 1
10
27.736410
20
13.939344
11
27.892641
21
13.844395
0
LINE
8
Layer 1
10
27.892641
20
13.844395
11
28.104997
21
14.030006
0
LINE
8
Layer 1
10
28.104997
20
14.030006
11
28.219351
21
14.334455
0
LINE
8
Layer 1
10
28.219351
20
14.334455
11
28.145866
21
14.537010
0
LINE
8
Layer 1
10
28.145866
20
14.537010
11
27.851803
21
14.538650
0
LINE
8
Layer 1
10
27.851803
20
14.538650
11
27.851869
21
14.538650
0
LINE
8
Layer 1
10
35.978735
20
13.395170
11
36.060411
21
13.190978
0
LINE
8
Layer 1
10
36.060411
20
13.190978
11
36.019639
21
12.660076
0
LINE
8
Layer 1
10
36.019639
20
12.660076
11
36.101316
21
11.434922
0
LINE
8
Layer 1
10
36.101316
20
11.434922
11
36.019639
21
10.618151
0
LINE
8
Layer 1
10
36.019639
20
10.618151
11
35.798324
21
10.358239
0
LINE
8
Layer 1
10
35.798324
20
10.358239
11
35.611253
21
9.964735
0
LINE
8
Layer 1
10
35.611253
20
9.964735
11
35.555281
21
9.494887
0
LINE
8
Layer 1
10
35.555281
20
9.494887
11
35.325384
21
9.107126
0
LINE
8
Layer 1
10
35.325384
20
9.107126
11
34.998674
21
8.984677
0
LINE
8
Layer 1
10
34.998674
20
8.984677
11
34.549452
21
9.025449
0
LINE
8
Layer 1
10
34.549452
20
9.025449
11
34.250927
21
9.116490
0
LINE
8
Layer 1
10
34.250927
20
9.116490
11
33.896035
21
9.229641
0
LINE
8
Layer 1
10
33.896035
20
9.229641
11
33.487651
21
9.147964
0
LINE
8
Layer 1
10
33.487651
20
9.147964
11
33.358196
21
9.300696
0
LINE
8
Layer 1
10
33.358196
20
9.300696
11
33.446876
21
9.433833
0
LINE
8
Layer 1
10
33.446876
20
9.433833
11
33.936940
21
9.923896
0
LINE
8
Layer 1
10
33.936940
20
9.923896
11
34.467839
21
10.822343
0
LINE
8
Layer 1
10
34.467839
20
10.822343
11
34.816187
21
11.425324
0
LINE
8
Layer 1
10
34.816187
20
11.425324
11
35.039579
21
12.088339
0
LINE
8
Layer 1
10
35.039579
20
12.088339
11
35.080354
21
12.496723
0
LINE
8
Layer 1
10
35.080354
20
12.496723
11
35.243707
21
12.700914
0
LINE
8
Layer 1
10
35.243707
20
12.700914
11
35.366156
21
12.945947
0
LINE
8
Layer 1
10
35.366156
20
12.945947
11
35.611189
21
13.109301
0
LINE
8
Layer 1
10
35.611189
20
13.109301
11
35.774543
21
13.354331
0
LINE
8
Layer 1
10
35.774543
20
13.354331
11
35.978735
21
13.395106
0
LINE
8
Layer 1
10
35.978735
20
13.395106
11
35.978735
21
13.395170
0
LINE
8
Layer 1
10
27.402644
20
12.374207
11
27.361872
21
12.088273
0
LINE
8
Layer 1
10
27.361872
20
12.088273
11
27.443549
21
11.924919
0
LINE
8
Layer 1
10
27.443549
20
11.924919
11
27.562803
21
11.769533
0
LINE
8
Layer 1
10
27.562803
20
11.769533
11
27.525226
21
11.598209
0
LINE
8
Layer 1
10
27.525226
20
11.598209
11
27.361872
21
11.353179
0
LINE
8
Layer 1
10
27.361872
20
11.353179
11
27.314781
21
11.194925
0
LINE
8
Layer 1
10
27.314781
20
11.194925
11
27.157680
21
11.067310
0
LINE
8
Layer 1
10
27.157680
20
11.067310
11
27.024146
21
10.932343
0
LINE
8
Layer 1
10
27.024146
20
10.932343
11
27.035229
21
10.781439
0
LINE
8
Layer 1
10
27.035229
20
10.781439
11
27.157680
21
10.413893
0
LINE
8
Layer 1
10
27.157680
20
10.413893
11
27.218729
21
10.165391
0
LINE
8
Layer 1
10
27.218729
20
10.165391
11
27.361872
21
10.087186
0
LINE
8
Layer 1
10
27.361872
20
10.087186
11
27.512954
21
10.276020
0
LINE
8
Layer 1
10
27.512954
20
10.276020
11
27.566064
21
10.658924
0
LINE
8
Layer 1
10
27.566064
20
10.658924
11
27.664150
21
10.956234
0
LINE
8
Layer 1
10
27.664150
20
10.956234
11
27.851935
21
11.189825
0
LINE
8
Layer 1
10
27.851935
20
11.189825
11
27.890144
21
11.497748
0
LINE
8
Layer 1
10
27.890144
20
11.497748
11
27.770259
21
11.761565
0
LINE
8
Layer 1
10
27.770259
20
11.761565
11
27.729484
21
12.088273
0
LINE
8
Layer 1
10
27.729484
20
12.088273
11
27.684309
21
12.319413
0
LINE
8
Layer 1
10
27.684309
20
12.319413
11
27.525292
21
12.374141
0
LINE
8
Layer 1
10
27.525292
20
12.374141
11
27.402843
21
12.374141
0
LINE
8
Layer 1
10
27.402843
20
12.374141
11
27.402644
21
12.374207
0
LINE
8
Layer 1
10
23.400472
20
12.251758
11
23.114601
21
12.170079
0
LINE
8
Layer 1
10
23.114601
20
12.170079
11
22.952267
21
11.886452
0
LINE
8
Layer 1
10
22.952267
20
11.886452
11
22.868115
21
11.752679
0
LINE
8
Layer 1
10
22.868115
20
11.752679
11
22.624540
21
11.680018
0
LINE
8
Layer 1
10
22.624540
20
11.680018
11
22.282108
21
11.756177
0
LINE
8
Layer 1
10
22.282108
20
11.756177
11
22.011962
21
11.843372
0
LINE
8
Layer 1
10
22.011962
20
11.843372
11
21.690157
21
11.738413
0
LINE
8
Layer 1
10
21.690157
20
11.738413
11
21.481060
21
11.434988
0
LINE
8
Layer 1
10
21.481060
20
11.434988
11
21.042450
21
11.130940
0
LINE
8
Layer 1
10
21.042450
20
11.130940
11
20.500936
21
11.026601
0
LINE
8
Layer 1
10
20.500936
20
11.026601
11
20.084994
21
10.794643
0
LINE
8
Layer 1
10
20.084994
20
10.794643
11
19.765842
21
10.454861
0
LINE
8
Layer 1
10
19.765842
20
10.454861
11
19.439133
21
9.719768
0
LINE
8
Layer 1
10
19.439133
20
9.719768
11
19.398360
21
9.270546
0
LINE
8
Layer 1
10
19.398360
20
9.270546
11
19.398360
21
9.107192
0
LINE
8
Layer 1
10
19.398360
20
9.107192
11
19.602552
21
8.167907
0
LINE
8
Layer 1
10
19.602552
20
8.167907
11
19.602552
21
7.759520
0
LINE
8
Layer 1
10
19.602552
20
7.759520
11
19.235007
21
7.391975
0
LINE
8
Layer 1
10
19.235007
20
7.391975
11
19.194235
21
7.106103
0
LINE
8
Layer 1
10
19.194235
20
7.106103
11
19.235007
21
6.575204
0
LINE
8
Layer 1
10
19.235007
20
6.575204
11
19.520876
21
6.044303
0
LINE
8
Layer 1
10
19.520876
20
6.044303
11
19.757949
21
5.859514
0
LINE
8
Layer 1
10
19.757949
20
5.859514
11
20.133454
21
5.840111
0
LINE
8
Layer 1
10
20.133454
20
5.840111
11
20.473104
21
5.780843
0
LINE
8
Layer 1
10
20.473104
20
5.780843
11
20.706627
21
5.621847
0
LINE
8
Layer 1
10
20.706627
20
5.621847
11
20.950224
21
5.309209
0
LINE
8
Layer 1
10
20.950224
20
5.309209
11
21.097447
21
5.206712
0
LINE
8
Layer 1
10
21.097447
20
5.206712
11
21.236093
21
5.268437
0
LINE
8
Layer 1
10
21.236093
20
5.268437
11
21.726156
21
5.431790
0
LINE
8
Layer 1
10
21.726156
20
5.431790
11
22.047352
21
5.501012
0
LINE
8
Layer 1
10
22.047352
20
5.501012
11
22.257058
21
5.799336
0
LINE
8
Layer 1
10
22.257058
20
5.799336
11
22.522741
21
6.142176
0
LINE
8
Layer 1
10
22.522741
20
6.142176
11
22.706280
21
6.248561
0
LINE
8
Layer 1
10
22.706280
20
6.248561
11
23.066278
21
6.396401
0
LINE
8
Layer 1
10
23.066278
20
6.396401
11
23.375452
21
6.633112
0
LINE
8
Layer 1
10
23.375452
20
6.633112
11
23.645568
21
7.024493
0
LINE
8
Layer 1
10
23.645568
20
7.024493
11
23.931437
21
7.555394
0
LINE
8
Layer 1
10
23.931437
20
7.555394
11
24.053886
21
7.841263
0
LINE
8
Layer 1
10
24.053886
20
7.841263
11
24.138243
21
8.537355
0
LINE
8
Layer 1
10
24.138243
20
8.537355
11
24.258081
21
8.739710
0
LINE
8
Layer 1
10
24.258081
20
8.739710
11
24.258081
21
10.087382
0
LINE
8
Layer 1
10
24.258081
20
10.087382
11
24.380530
21
10.536604
0
LINE
8
Layer 1
10
24.380530
20
10.536604
11
24.503013
21
10.933561
0
LINE
8
Layer 1
10
24.503013
20
10.933561
11
24.502981
21
11.149183
0
LINE
8
Layer 1
10
24.502981
20
11.149183
11
24.502981
21
11.639246
0
LINE
8
Layer 1
10
24.502981
20
11.639246
11
24.625430
21
11.925115
0
LINE
8
Layer 1
10
24.625430
20
11.925115
11
24.509113
21
12.050066
0
LINE
8
Layer 1
10
24.509113
20
12.050066
11
24.176205
21
12.047564
0
LINE
8
Layer 1
10
24.176205
20
12.047564
11
23.920756
21
12.121481
0
LINE
8
Layer 1
10
23.920756
20
12.121481
11
23.686145
21
12.251758
0
LINE
8
Layer 1
10
23.686145
20
12.251758
11
23.400273
21
12.251758
0
LINE
8
Layer 1
10
23.400273
20
12.251758
11
23.400472
21
12.251758
0
LINE
8
Layer 1
10
6.738355
20
12.088402
11
6.534163
21
11.965953
0
LINE
8
Layer 1
10
6.534163
20
11.965953
11
6.248292
21
11.598405
0
LINE
8
Layer 1
10
6.248292
20
11.598405
11
6.044100
21
11.353375
0
LINE
8
Layer 1
10
6.044100
20
11.353375
11
6.025118
21
11.073193
0
LINE
8
Layer 1
10
6.025118
20
11.073193
11
5.921651
21
10.699958
0
LINE
8
Layer 1
10
5.921651
20
10.699958
11
5.819970
21
10.283814
0
LINE
8
Layer 1
10
5.819970
20
10.283814
11
5.799199
21
9.678996
0
LINE
8
Layer 1
10
5.799199
20
9.678996
11
5.719760
21
9.252434
0
LINE
8
Layer 1
10
5.719760
20
9.252434
11
5.839971
21
8.780548
0
LINE
8
Layer 1
10
5.839971
20
8.780548
11
5.966985
21
8.223511
0
LINE
8
Layer 1
10
5.966985
20
8.223511
11
5.758294
21
7.637071
0
LINE
8
Layer 1
10
5.758294
20
7.637071
11
5.431587
21
6.697783
0
LINE
8
Layer 1
10
5.431587
20
6.697783
11
5.554036
21
6.289399
0
LINE
8
Layer 1
10
5.554036
20
6.289399
11
5.554036
21
5.431790
0
LINE
8
Layer 1
10
5.554036
20
5.431790
11
5.595078
21
4.851480
0
LINE
8
Layer 1
10
5.595078
20
4.851480
11
5.921584
21
4.410828
0
LINE
8
Layer 1
10
5.921584
20
4.410828
11
6.207453
21
4.370053
0
LINE
8
Layer 1
10
6.207453
20
4.370053
11
6.575001
21
4.206699
0
LINE
8
Layer 1
10
6.575001
20
4.206699
11
7.135305
21
4.451728
0
LINE
8
Layer 1
10
7.135305
20
4.451728
11
7.661305
21
4.889291
0
LINE
8
Layer 1
10
7.661305
20
4.889291
11
8.208542
21
5.717725
0
LINE
8
Layer 1
10
8.208542
20
5.717725
11
8.138433
21
5.999666
0
LINE
8
Layer 1
10
8.138433
20
5.999666
11
7.948114
21
6.145310
0
LINE
8
Layer 1
10
7.948114
20
6.145310
11
7.432610
21
6.207788
0
LINE
8
Layer 1
10
7.432610
20
6.207788
11
7.114881
21
6.236375
0
LINE
8
Layer 1
10
7.114881
20
6.236375
11
6.983385
21
6.534495
0
LINE
8
Layer 1
10
6.983385
20
6.534495
11
7.083056
21
6.998621
0
LINE
8
Layer 1
10
7.083056
20
6.998621
11
7.310095
21
7.351266
0
LINE
8
Layer 1
10
7.310095
20
7.351266
11
7.263971
21
7.632229
0
LINE
8
Layer 1
10
7.263971
20
7.632229
11
7.024224
21
7.800491
0
LINE
8
Layer 1
10
7.024224
20
7.800491
11
6.920290
21
8.006904
0
LINE
8
Layer 1
10
6.920290
20
8.006904
11
6.942547
21
8.168036
0
LINE
8
Layer 1
10
6.942547
20
8.168036
11
7.083435
21
8.452686
0
LINE
8
Layer 1
10
7.083435
20
8.452686
11
7.187577
21
9.229837
0
LINE
8
Layer 1
10
7.187577
20
9.229837
11
7.257442
21
9.859766
0
LINE
8
Layer 1
10
7.257442
20
9.859766
11
7.432610
21
10.005769
0
LINE
8
Layer 1
10
7.432610
20
10.005769
11
7.570469
21
10.405706
0
LINE
8
Layer 1
10
7.570469
20
10.405706
11
7.562414
21
10.716560
0
LINE
8
Layer 1
10
7.562414
20
10.716560
11
7.432610
21
10.945054
0
LINE
8
Layer 1
10
7.432610
20
10.945054
11
7.069555
21
11.455946
0
LINE
8
Layer 1
10
7.069555
20
11.455946
11
6.983385
21
11.925181
0
LINE
8
Layer 1
10
6.983385
20
11.925181
11
6.738355
21
12.088534
0
LINE
8
Layer 1
10
6.738355
20
12.088534
11
6.738355
21
12.088402
0
LINE
8
Layer 1
10
13.354195
20
11.516665
11
12.293818
21
11.236711
0
LINE
8
Layer 1
10
12.293818
20
11.236711
11
11.773050
21
10.960514
0
LINE
8
Layer 1
10
11.773050
20
10.960514
11
11.516462
21
10.659056
0
LINE
8
Layer 1
10
11.516462
20
10.659056
11
11.387183
21
10.241282
0
LINE
8
Layer 1
10
11.387183
20
10.241282
11
11.026399
21
10.046478
0
LINE
8
Layer 1
10
11.026399
20
10.046478
11
10.804953
21
9.915796
0
LINE
8
Layer 1
10
10.804953
20
9.915796
11
10.696837
21
9.723858
0
LINE
8
Layer 1
10
10.696837
20
9.723858
11
10.658853
21
9.474738
0
LINE
8
Layer 1
10
10.658853
20
9.474738
11
10.577176
21
9.270546
0
LINE
8
Layer 1
10
10.577176
20
9.270546
11
10.454725
21
8.780482
0
LINE
8
Layer 1
10
10.454725
20
8.780482
11
10.332276
21
8.453775
0
LINE
8
Layer 1
10
10.332276
20
8.453775
11
10.250599
21
7.759520
0
LINE
8
Layer 1
10
10.250599
20
7.759520
11
10.087243
21
7.432813
0
LINE
8
Layer 1
10
10.087243
20
7.432813
11
10.168920
21
6.616043
0
LINE
8
Layer 1
10
10.168920
20
6.616043
11
10.373114
21
6.166818
0
LINE
8
Layer 1
10
10.373114
20
6.166818
11
10.538689
21
5.899331
0
LINE
8
Layer 1
10
10.538689
20
5.899331
11
10.658983
21
5.840111
0
LINE
8
Layer 1
10
10.658983
20
5.840111
11
10.857658
21
5.794574
0
LINE
8
Layer 1
10
10.857658
20
5.794574
11
11.189884
21
5.554239
0
LINE
8
Layer 1
10
11.189884
20
5.554239
11
11.612971
21
5.351676
0
LINE
8
Layer 1
10
11.612971
20
5.351676
11
12.251685
21
5.350047
0
LINE
8
Layer 1
10
12.251685
20
5.350047
11
12.741748
21
5.446184
0
LINE
8
Layer 1
10
12.741748
20
5.446184
11
12.986779
21
5.758434
0
LINE
8
Layer 1
10
12.986779
20
5.758434
11
13.309194
21
5.997952
0
LINE
8
Layer 1
10
13.309194
20
5.997952
11
13.885226
21
6.003464
0
LINE
8
Layer 1
10
13.885226
20
6.003464
11
14.366094
21
6.181597
0
LINE
8
Layer 1
10
14.366094
20
6.181597
11
14.742835
21
6.738558
0
LINE
8
Layer 1
10
14.742835
20
6.738558
11
14.824511
21
7.024426
0
LINE
8
Layer 1
10
14.824511
20
7.024426
11
15.355413
21
7.555328
0
LINE
8
Layer 1
10
15.355413
20
7.555328
11
15.314638
21
8.412937
0
LINE
8
Layer 1
10
15.314638
20
8.412937
11
15.723025
21
9.474738
0
LINE
8
Layer 1
10
15.723025
20
9.474738
11
15.881066
21
9.864342
0
LINE
8
Layer 1
10
15.881066
20
9.864342
11
15.845474
21
10.209831
0
LINE
8
Layer 1
10
15.845474
20
10.209831
11
15.758880
21
10.537745
0
LINE
8
Layer 1
10
15.758880
20
10.537745
11
15.804701
21
10.863248
0
LINE
8
Layer 1
10
15.804701
20
10.863248
11
15.871672
21
11.208736
0
LINE
8
Layer 1
10
15.871672
20
11.208736
11
15.749564
21
11.372295
0
LINE
8
Layer 1
10
15.749564
20
11.372295
11
15.477994
21
11.475826
0
LINE
8
Layer 1
10
15.477994
20
11.475826
11
14.893395
21
11.358619
0
LINE
8
Layer 1
10
14.893395
20
11.358619
11
14.457029
21
11.189955
0
LINE
8
Layer 1
10
14.457029
20
11.189955
11
14.034969
21
11.356743
0
LINE
8
Layer 1
10
14.034969
20
11.356743
11
13.354390
21
11.516665
0
LINE
8
Layer 1
10
13.354390
20
11.516665
11
13.354195
21
11.516665
0
LINE
8
Layer 1
10
12.945811
20
10.659056
11
13.238311
21
10.686972
0
LINE
8
Layer 1
10
13.238311
20
10.686972
11
13.476710
21
10.577379
0
LINE
8
Layer 1
10
13.476710
20
10.577379
11
13.676026
21
10.335001
0
LINE
8
Layer 1
10
13.676026
20
10.335001
11
14.007611
21
10.128154
0
LINE
8
Layer 1
10
14.007611
20
10.128154
11
14.356162
21
9.890480
0
LINE
8
Layer 1
10
14.356162
20
9.890480
11
14.375157
21
9.515576
0
LINE
8
Layer 1
10
14.375157
20
9.515576
11
14.328376
21
8.555462
0
LINE
8
Layer 1
10
14.328376
20
8.555462
11
14.143346
21
7.987961
0
LINE
8
Layer 1
10
14.143346
20
7.987961
11
13.721740
21
7.514490
0
LINE
8
Layer 1
10
13.721740
20
7.514490
11
13.094467
21
7.205143
0
LINE
8
Layer 1
10
13.094467
20
7.205143
11
12.496586
21
7.269457
0
LINE
8
Layer 1
10
12.496586
20
7.269457
11
11.802331
21
7.555328
0
LINE
8
Layer 1
10
11.802331
20
7.555328
11
11.520754
21
7.807297
0
LINE
8
Layer 1
10
11.520754
20
7.807297
11
11.353108
21
8.208745
0
LINE
8
Layer 1
10
11.353108
20
8.208745
11
11.519904
21
8.439685
0
LINE
8
Layer 1
10
11.519904
20
8.439685
11
11.638977
21
8.576290
0
LINE
8
Layer 1
10
11.638977
20
8.576290
11
11.679557
21
8.934236
0
LINE
8
Layer 1
10
11.679557
20
8.934236
11
11.884007
21
9.229707
0
LINE
8
Layer 1
10
11.884007
20
9.229707
11
12.088199
21
9.352156
0
LINE
8
Layer 1
10
12.088199
20
9.352156
11
12.337315
21
9.467526
0
LINE
8
Layer 1
10
12.337315
20
9.467526
11
12.659939
21
9.760543
0
LINE
8
Layer 1
10
12.659939
20
9.760543
11
12.699160
21
10.200174
0
LINE
8
Layer 1
10
12.699160
20
10.200174
11
12.782391
21
10.577313
0
LINE
8
Layer 1
10
12.782391
20
10.577313
11
12.945745
21
10.658990
0
LINE
8
Layer 1
10
12.945745
20
10.658990
11
12.945811
21
10.659056
0
LINE
8
Layer 1
10
22.910409
20
10.087446
11
23.237116
21
9.924092
0
LINE
8
Layer 1
10
23.237116
20
9.924092
11
23.281221
21
9.556136
0
LINE
8
Layer 1
10
23.281221
20
9.556136
11
23.237116
21
9.352352
0
LINE
8
Layer 1
10
23.237116
20
9.352352
11
22.951247
21
8.984807
0
LINE
8
Layer 1
10
22.951247
20
8.984807
11
22.865487
21
8.686889
0
LINE
8
Layer 1
10
22.865487
20
8.686889
11
22.706217
21
8.208875
0
LINE
8
Layer 1
10
22.706217
20
8.208875
11
22.256992
21
7.923006
0
LINE
8
Layer 1
10
22.256992
20
7.923006
11
21.889446
21
7.718811
0
LINE
8
Layer 1
10
21.889446
20
7.718811
11
21.399383
21
7.637134
0
LINE
8
Layer 1
10
21.399383
20
7.637134
11
21.015292
21
7.774789
0
LINE
8
Layer 1
10
21.015292
20
7.774789
11
20.664289
21
8.086359
0
LINE
8
Layer 1
10
20.664289
20
8.086359
11
20.419259
21
8.739776
0
LINE
8
Layer 1
10
20.419259
20
8.739776
11
20.642206
21
9.159387
0
LINE
8
Layer 1
10
20.642206
20
9.159387
11
20.909320
21
9.229837
0
LINE
8
Layer 1
10
20.909320
20
9.229837
11
21.503288
21
9.242180
0
LINE
8
Layer 1
10
21.503288
20
9.242180
11
22.093638
21
9.393190
0
LINE
8
Layer 1
10
22.093638
20
9.393190
11
22.216087
21
9.597385
0
LINE
8
Layer 1
10
22.216087
20
9.597385
11
22.370254
21
9.871820
0
LINE
8
Layer 1
10
22.370254
20
9.871820
11
22.584784
21
10.043954
0
LINE
8
Layer 1
10
22.584784
20
10.043954
11
22.910343
21
10.087446
0
LINE
8
Layer 1
10
22.910343
20
10.087446
11
22.910409
21
10.087446
0
LINE
8
Layer 1
10
26.830907
20
9.637961
11
26.604043
21
9.470110
0
LINE
8
Layer 1
10
26.604043
20
9.470110
11
26.545036
21
9.270416
0
LINE
8
Layer 1
10
26.545036
20
9.270416
11
26.504263
21
9.147964
0
LINE
8
Layer 1
10
26.504263
20
9.147964
11
26.559253
21
8.924175
0
LINE
8
Layer 1
10
26.559253
20
8.924175
11
26.749294
21
8.739580
0
LINE
8
Layer 1
10
26.749294
20
8.739580
11
26.962268
21
8.917845
0
LINE
8
Layer 1
10
26.962268
20
8.917845
11
27.076003
21
9.229641
0
LINE
8
Layer 1
10
27.076003
20
9.229641
11
27.051499
21
9.485296
0
LINE
8
Layer 1
10
27.051499
20
9.485296
11
26.830970
21
9.638028
0
LINE
8
Layer 1
10
26.830970
20
9.638028
11
26.830907
21
9.637961
0
LINE
8
Layer 1
10
20.460098
20
6.901782
11
20.582547
21
6.779330
0
LINE
8
Layer 1
10
20.582547
20
6.779330
11
20.460098
21
6.779330
0
LINE
8
Layer 1
10
20.460098
20
6.779330
11
20.460098
21
6.901782
0
LINE
8
Layer 1
10
20.460098
20
6.901782
11
20.460098
21
6.901782
0
LINE
8
Layer 1
10
27.280129
20
6.779330
11
27.035099
21
6.697653
0
LINE
8
Layer 1
10
27.035099
20
6.697653
11
27.000965
21
6.528985
0
LINE
8
Layer 1
10
27.000965
20
6.528985
11
27.075871
21
6.411784
0
LINE
8
Layer 1
10
27.075871
20
6.411784
11
27.329474
21
6.169204
0
LINE
8
Layer 1
10
27.329474
20
6.169204
11
27.567920
21
6.035508
0
LINE
8
Layer 1
10
27.567920
20
6.035508
11
27.810965
21
6.044236
0
LINE
8
Layer 1
10
27.810965
20
6.044236
11
27.919519
21
6.194114
0
LINE
8
Layer 1
10
27.919519
20
6.194114
11
27.848741
21
6.380747
0
LINE
8
Layer 1
10
27.848741
20
6.380747
11
27.525096
21
6.697653
0
LINE
8
Layer 1
10
27.525096
20
6.697653
11
27.280066
21
6.779330
0
LINE
8
Layer 1
10
27.280066
20
6.779330
11
27.280129
21
6.779330
0
LINE
8
Layer 1
10
35.161964
20
6.738558
11
35.202736
21
6.697783
0
LINE
8
Layer 1
10
35.202736
20
6.697783
11
35.161964
21
6.657011
0
LINE
8
Layer 1
10
35.161964
20
6.657011
11
35.161964
21
6.738687
0
LINE
8
Layer 1
10
35.161964
20
6.738687
11
35.161964
21
6.738558
0
LINE
8
Layer 1
10
27.239291
20
5.186694
11
27.011826
21
5.039271
0
LINE
8
Layer 1
10
27.011826
20
5.039271
11
26.953422
21
4.859987
0
LINE
8
Layer 1
10
26.953422
20
4.859987
11
26.912650
21
4.696630
0
LINE
8
Layer 1
10
26.912650
20
4.696630
11
26.968612
21
4.472836
0
LINE
8
Layer 1
10
26.968612
20
4.472836
11
27.157680
21
4.288247
0
LINE
8
Layer 1
10
27.157680
20
4.288247
11
27.369423
21
4.466507
0
LINE
8
Layer 1
10
27.369423
20
4.466507
11
27.484387
21
4.778307
0
LINE
8
Layer 1
10
27.484387
20
4.778307
11
27.459883
21
5.033962
0
LINE
8
Layer 1
10
27.459883
20
5.033962
11
27.239357
21
5.186694
0
LINE
8
Layer 1
10
27.239357
20
5.186694
11
27.239291
21
5.186694
 0 
ENDSEC
 0 
EOF