  0
SECTION
  2
HEADER
  9
$ACADVER
  1
AC1014
  9
$HANDSEED
  5
FFFF
  9
$INSUNITS
 70
     0
  9
$MEASUREMENT
 70
     1
  0
ENDSEC
  0
SECTION
  2
TABLES
  0
TABLE
  2
VPORT
  5
8
330
0
100
AcDbSymbolTable
 70
     4
  0
VPORT
  5
2E
330
8
100
AcDbSymbolTableRecord
100
AcDbViewportTableRecord
  2
*ACTIVE
 70
     0
 10
0.0
 20
0.0
 11
1.0
 21
1.0
 12
210.0
 22
148.5
 13
0.0
 23
0.0
 14
10.0
 24
10.0
 15
10.0
 25
10.0
 16
0.0
 26
0.0
 36
1.0
 17
0.0
 27
0.0
 37
0.0
 40
341.0
 41
1.24
 42
50.0
 43
0.0
 44
0.0
 50
0.0
 51
0.0
 71
     0
 72
   100
 73
     1
 74
     3
 75
     0
 76
     0
 77
     0
 78
     0
  0
ENDTAB
  0
TABLE
  2
LTYPE
  5
5
330
0
100
AcDbSymbolTable
 70
     1
  0
LTYPE
  5
14
330
5
100
AcDbSymbolTableRecord
100
AcDbLinetypeTableRecord
  2
BYBLOCK
 70
     0
  3

 72
    65
 73
     0
 40
0.0
  0
LTYPE
  5
15
330
5
100
AcDbSymbolTableRecord
100
AcDbLinetypeTableRecord
  2
BYLAYER
 70
     0
  3

 72
    65
 73
     0
 40
0.0
  0
LTYPE
  5
16
330
5
100
AcDbSymbolTableRecord
100
AcDbLinetypeTableRecord
  2
CONTINUOUS
 70
     0
  3
Solid line
 72
    65
 73
     0
 40
0.0
  0
ENDTAB
  0
TABLE
  2
LAYER
  5
2
100
AcDbSymbolTable
 70
1
  0
LAYER
  5
50
100
AcDbSymbolTableRecord
100
AcDbLayerTableRecord
  2
0
 70
0
  6
CONTINUOUS
  0
ENDTAB
  0
TABLE
  2
STYLE
  5
3
330
0
100
AcDbSymbolTable
 70
     1
  0
STYLE
  5
11
330
3
100
AcDbSymbolTableRecord
100
AcDbTextStyleTableRecord
  2
STANDARD
 70
     0
 40
0.0
 41
1.0
 50
0.0
 71
     0
 42
2.5
  3
txt
  4

  0
ENDTAB
  0
TABLE
  2
VIEW
  5
6
330
0
100
AcDbSymbolTable
 70
     0
  0
ENDTAB
  0
TABLE
  2
UCS
  5
7
330
0
100
AcDbSymbolTable
 70
     0
  0
ENDTAB
  0
TABLE
  2
APPID
  5
9
330
0
100
AcDbSymbolTable
 70
     2
  0
APPID
  5
12
330
9
100
AcDbSymbolTableRecord
100
AcDbRegAppTableRecord
  2
ACAD
 70
     0
  0
ENDTAB
  0
TABLE
  2
DIMSTYLE
  5
A
330
0
100
AcDbSymbolTable
 70
     1
  0
DIMSTYLE
105
27
330
A
100
AcDbSymbolTableRecord
100
AcDbDimStyleTableRecord
  2
ISO-25
 70
     0
  3

  4

  5

  6

  7

 40
1.0
 41
2.5
 42
0.625
 43
3.75
 44
1.25
 45
0.0
 46
0.0
 47
0.0
 48
0.0
140
2.5
141
2.5
142
0.0
143
0.03937007874016
144
1.0
145
0.0
146
1.0
147
0.625
 71
     0
 72
     0
 73
     0
 74
     0
 75
     0
 76
     0
 77
     1
 78
     8
170
     0
171
     3
172
     1
173
     0
174
     0
175
     0
176
     0
177
     0
178
     0
270
     2
271
     2
272
     2
273
     2
274
     3
340
11
275
     0
280
     0
281
     0
282
     0
283
     0
284
     8
285
     0
286
     0
287
     3
288
     0
  0
ENDTAB
  0
TABLE
  2
BLOCK_RECORD
  5
1
330
0
100
AcDbSymbolTable
 70
     1
  0
BLOCK_RECORD
  5
1F
330
1
100
AcDbSymbolTableRecord
100
AcDbBlockTableRecord
  2
*MODEL_SPACE
  0
BLOCK_RECORD
  5
1B
330
1
100
AcDbSymbolTableRecord
100
AcDbBlockTableRecord
  2
*PAPER_SPACE
  0
ENDTAB
  0
ENDSEC
  0
SECTION
  2
BLOCKS
  0
BLOCK
  5
20
330
1F
100
AcDbEntity
  8
0
100
AcDbBlockBegin
  2
*MODEL_SPACE
 70
     0
 10
0.0
 20
0.0
 30
0.0
  3
*MODEL_SPACE
  1

  0
ENDBLK
  5
21
330
1F
100
AcDbEntity
  8
0
100
AcDbBlockEnd
  0
BLOCK
  5
1C
330
1B
100
AcDbEntity
 67
     1
  8
0
100
AcDbBlockBegin
  2
*PAPER_SPACE
  1

  0
ENDBLK
  5
1D
330
1B
100
AcDbEntity
 67
     1
  8
0
100
AcDbBlockEnd
  0
ENDSEC
  0
SECTION
  2
ENTITIES
  0
SPLINE
  5
100
100
AcDbEntity
  8
0
 62
7
100
AcDbSpline
 70
8
 71
3
 72
8
 73
4
 74
0
 40
0
 40
0
 40
0
 40
0
 40
1
 40
1
 40
1
 40
1
 10
270.257290
 20
140.245834
 30
0.0
 10
266.367888
 20
140.245834
 30
0.0
 10
264.767290
 20
142.101902
 30
0.0
 10
264.986264
 20
144.317714
 30
0.0
  0
SPLINE
  5
101
100
AcDbEntity
  8
0
 62
7
100
AcDbSpline
 70
8
 71
3
 72
8
 73
4
 74
0
 40
0
 40
0
 40
0
 40
0
 40
1
 40
1
 40
1
 40
1
 10
264.986264
 20
144.317714
 30
0.0
 10
265.048829
 20
144.985064
 30
0.0
 10
265.080111
 20
145.339594
 30
0.0
 10
265.173957
 20
145.694124
 30
0.0
  0
LWPOLYLINE
  5
102
100
AcDbEntity
  8
0
 62
7
100
AcDbPolyline
 90
3
 70
0
 10
283.348828
 20
131.638056
 30
0.0
 10
284.177802
 20
140.245834
 30
0.0
 10
270.257290
 20
140.245834
 30
0.0
  0
SPLINE
  5
103
100
AcDbEntity
  8
0
 62
7
100
AcDbSpline
 70
8
 71
3
 72
8
 73
4
 74
0
 40
0
 40
0
 40
0
 40
0
 40
1
 40
1
 40
1
 40
1
 10
254.439000
 20
145.735834
 30
0.0
 10
254.131393
 20
142.503355
 30
0.0
 10
255.825837
 20
140.464808
 30
0.0
 10
259.376350
 20
139.802671
 30
0.0
  0
LWPOLYLINE
  5
104
100
AcDbEntity
  8
0
 62
7
100
AcDbPolyline
 90
2
 70
0
 10
265.173957
 20
145.694124
 30
0.0
 10
254.439000
 20
145.735834
 30
0.0
  0
LWPOLYLINE
  5
105
100
AcDbEntity
  8
0
 62
7
100
AcDbPolyline
 90
6
 70
0
 10
259.376350
 20
139.802671
 30
0.0
 10
259.371136
 20
139.714039
 30
0.0
 10
254.657974
 20
139.714039
 30
0.0
 10
253.974983
 20
131.638056
 30
0.0
 10
283.348828
 20
131.638056
 30
0.0
 10
283.348828
 20
131.638056
 30
0.0
  0
LWPOLYLINE
  5
106
100
AcDbEntity
  8
0
 62
7
100
AcDbPolyline
 90
5
 70
1
 10
285.721050
 20
156.288312
 30
0.0
 10
245.283787
 20
156.288312
 30
0.0
 10
244.454812
 20
147.748312
 30
0.0
 10
284.897289
 20
147.748312
 30
0.0
 10
285.721050
 20
156.288312
 30
0.0
  0
LWPOLYLINE
  5
107
100
AcDbEntity
  8
0
 62
7
100
AcDbPolyline
 90
5
 70
1
 10
255.231478
 20
167.810534
 30
0.0
 10
246.008487
 20
167.810534
 30
0.0
 10
245.127376
 20
159.207970
 30
0.0
 10
254.360795
 20
159.207970
 30
0.0
 10
255.231478
 20
167.810534
 30
0.0
  0
LWPOLYLINE
  5
108
100
AcDbEntity
  8
0
 62
7
100
AcDbPolyline
 90
5
 70
1
 10
286.836776
 20
167.810534
 30
0.0
 10
257.734042
 20
167.810534
 30
0.0
 10
256.863359
 20
159.207970
 30
0.0
 10
285.960879
 20
159.207970
 30
0.0
 10
286.836776
 20
167.810534
 30
0.0
  0
SPLINE
  5
109
100
AcDbEntity
  8
0
 62
7
100
AcDbSpline
 70
8
 71
3
 72
8
 73
4
 74
0
 40
0
 40
0
 40
0
 40
0
 40
1
 40
1
 40
1
 40
1
 10
263.312675
 20
78.250024
 30
0.0
 10
272.817204
 20
78.250024
 30
0.0
 10
279.052760
 20
83.677460
 30
0.0
 10
279.756606
 20
91.336349
 30
0.0
  0
SPLINE
  5
10a
100
AcDbEntity
  8
0
 62
7
100
AcDbSpline
 70
8
 71
3
 72
8
 73
4
 74
0
 40
0
 40
0
 40
0
 40
0
 40
1
 40
1
 40
1
 40
1
 10
279.756606
 20
91.336349
 30
0.0
 10
280.366606
 20
97.921220
 30
0.0
 10
275.413614
 20
103.916946
 30
0.0
 10
265.408572
 20
103.916946
 30
0.0
  0
SPLINE
  5
10b
100
AcDbEntity
  8
0
 62
7
100
AcDbSpline
 70
8
 71
3
 72
8
 73
4
 74
0
 40
0
 40
0
 40
0
 40
0
 40
1
 40
1
 40
1
 40
1
 10
265.408572
 20
103.916946
 30
0.0
 10
257.953017
 20
103.916946
 30
0.0
 10
250.012590
 20
99.167288
 30
0.0
 10
249.397376
 20
92.571990
 30
0.0
  0
SPLINE
  5
10c
100
AcDbEntity
  8
0
 62
7
100
AcDbSpline
 70
8
 71
3
 72
8
 73
4
 74
0
 40
0
 40
0
 40
0
 40
0
 40
1
 40
1
 40
1
 40
1
 10
249.397376
 20
92.571990
 30
0.0
 10
249.167974
 20
90.085067
 30
0.0
 10
249.777974
 20
88.891135
 30
0.0
 10
250.732077
 20
87.186263
 30
0.0
  0
LWPOLYLINE
  5
10d
100
AcDbEntity
  8
0
 62
7
100
AcDbPolyline
 90
2
 70
0
 10
238.459086
 20
78.250024
 30
0.0
 10
263.312675
 20
78.250024
 30
0.0
  0
SPLINE
  5
10e
100
AcDbEntity
  8
0
 62
7
100
AcDbSpline
 70
8
 71
3
 72
8
 73
4
 74
0
 40
0
 40
0
 40
0
 40
0
 40
1
 40
1
 40
1
 40
1
 10
268.849598
 20
127.670450
 30
0.0
 10
271.539854
 20
125.861304
 30
0.0
 10
273.203016
 20
121.997971
 30
0.0
 10
272.968401
 20
119.511048
 30
0.0
  0
SPLINE
  5
10f
100
AcDbEntity
  8
0
 62
7
100
AcDbSpline
 70
8
 71
3
 72
8
 73
4
 74
0
 40
0
 40
0
 40
0
 40
0
 40
1
 40
1
 40
1
 40
1
 10
272.968401
 20
119.511048
 30
0.0
 10
272.890196
 20
118.676860
 30
0.0
 10
272.676435
 20
117.571561
 30
0.0
 10
272.233273
 20
116.925066
 30
0.0
  0
LWPOLYLINE
  5
110
100
AcDbEntity
  8
0
 62
7
100
AcDbPolyline
 90
4
 70
0
 10
250.732077
 20
87.186263
 30
0.0
 10
239.183787
 20
87.186263
 30
0.0
 10
238.459086
 20
78.250024
 30
0.0
 10
238.459086
 20
78.250024
 30
0.0
  0
SPLINE
  5
111
100
AcDbEntity
  8
0
 62
7
100
AcDbSpline
 70
8
 71
3
 72
8
 73
4
 74
0
 40
0
 40
0
 40
0
 40
0
 40
1
 40
1
 40
1
 40
1
 10
262.134384
 20
129.276262
 30
0.0
 10
256.331564
 20
127.300279
 30
0.0
 10
252.275325
 20
123.098057
 30
0.0
 10
251.769598
 20
117.613271
 30
0.0
  0
SPLINE
  5
112
100
AcDbEntity
  8
0
 62
7
100
AcDbSpline
 70
8
 71
3
 72
8
 73
4
 74
0
 40
0
 40
0
 40
0
 40
0
 40
1
 40
1
 40
1
 40
1
 10
251.769598
 20
117.613271
 30
0.0
 10
251.133530
 20
110.793784
 30
0.0
 10
256.514043
 20
105.168228
 30
0.0
 10
266.466948
 20
105.168228
 30
0.0
  0
SPLINE
  5
113
100
AcDbEntity
  8
0
 62
7
100
AcDbSpline
 70
8
 71
3
 72
8
 73
4
 74
0
 40
0
 40
0
 40
0
 40
0
 40
1
 40
1
 40
1
 40
1
 10
266.466948
 20
105.168228
 30
0.0
 10
274.480367
 20
105.168228
 30
0.0
 10
281.581392
 20
110.465322
 30
0.0
 10
282.280024
 20
117.936518
 30
0.0
  0
SPLINE
  5
114
100
AcDbEntity
  8
0
 62
7
100
AcDbSpline
 70
8
 71
3
 72
8
 73
4
 74
0
 40
0
 40
0
 40
0
 40
0
 40
1
 40
1
 40
1
 40
1
 10
282.280024
 20
117.936518
 30
0.0
 10
282.697118
 20
122.456775
 30
0.0
 10
281.904640
 20
124.630877
 30
0.0
 10
279.636691
 20
128.363868
 30
0.0
  0
LWPOLYLINE
  5
115
100
AcDbEntity
  8
0
 62
7
100
AcDbPolyline
 90
2
 70
0
 10
272.233273
 20
116.925066
 30
0.0
 10
262.134384
 20
129.276262
 30
0.0
  0
LWPOLYLINE
  5
116
100
AcDbEntity
  8
0
 62
7
100
AcDbPolyline
 90
3
 70
0
 10
279.636691
 20
128.363868
 30
0.0
 10
268.849598
 20
127.670450
 30
0.0
 10
268.849598
 20
127.670450
 30
0.0
  0
SPLINE
  5
117
100
AcDbEntity
  8
0
 62
7
100
AcDbSpline
 70
8
 71
3
 72
8
 73
4
 74
0
 40
0
 40
0
 40
0
 40
0
 40
1
 40
1
 40
1
 40
1
 10
270.862076
 20
180.302499
 30
0.0
 10
269.522162
 20
180.302499
 30
0.0
 10
267.321991
 20
180.724806
 30
0.0
 10
267.321991
 20
182.513097
 30
0.0
  0
SPLINE
  5
118
100
AcDbEntity
  8
0
 62
7
100
AcDbSpline
 70
8
 71
3
 72
8
 73
4
 74
0
 40
0
 40
0
 40
0
 40
0
 40
1
 40
1
 40
1
 40
1
 10
267.321991
 20
182.513097
 30
0.0
 10
267.321991
 20
184.322242
 30
0.0
 10
269.167632
 20
184.807114
 30
0.0
 10
270.335495
 20
184.807114
 30
0.0
  0
LWPOLYLINE
  5
119
100
AcDbEntity
  8
0
 62
7
100
AcDbPolyline
 90
4
 70
0
 10
258.005154
 20
171.548738
 30
0.0
 10
287.149597
 20
171.548738
 30
0.0
 10
288.051563
 20
180.302499
 30
0.0
 10
270.862076
 20
180.302499
 30
0.0
  0
SPLINE
  5
11a
100
AcDbEntity
  8
0
 62
7
100
AcDbSpline
 70
8
 71
3
 72
8
 73
4
 74
0
 40
0
 40
0
 40
0
 40
0
 40
1
 40
1
 40
1
 40
1
 10
270.059170
 20
193.498310
 30
0.0
 10
264.444042
 20
193.498310
 30
0.0
 10
259.246008
 20
191.360703
 30
0.0
 10
258.828914
 20
186.803952
 30
0.0
  0
SPLINE
  5
11b
100
AcDbEntity
  8
0
 62
7
100
AcDbSpline
 70
8
 71
3
 72
8
 73
4
 74
0
 40
0
 40
0
 40
0
 40
0
 40
1
 40
1
 40
1
 40
1
 10
258.828914
 20
186.803952
 30
0.0
 10
258.630795
 20
184.593353
 30
0.0
 10
259.923786
 20
181.918738
 30
0.0
 10
262.707888
 20
180.120020
 30
0.0
  0
LWPOLYLINE
  5
11c
100
AcDbEntity
  8
0
 62
7
100
AcDbPolyline
 90
4
 70
0
 10
270.335495
 20
184.807114
 30
0.0
 10
288.468657
 20
184.807114
 30
0.0
 10
289.302845
 20
193.498310
 30
0.0
 10
270.059170
 20
193.498310
 30
0.0
  0
LWPOLYLINE
  5
11d
100
AcDbEntity
  8
0
 62
7
100
AcDbPolyline
 90
5
 70
0
 10
262.707888
 20
180.120020
 30
0.0
 10
262.692247
 20
179.942755
 30
0.0
 10
258.854983
 20
179.942755
 30
0.0
 10
258.005154
 20
171.548738
 30
0.0
 10
258.005154
 20
171.548738
 30
0.0
  0
SPLINE
  5
11e
100
AcDbEntity
  8
0
 62
7
100
AcDbSpline
 70
8
 71
3
 72
8
 73
4
 74
0
 40
0
 40
0
 40
0
 40
0
 40
1
 40
1
 40
1
 40
1
 10
282.488571
 20
70.012418
 30
0.0
 10
280.908828
 20
32.239342
 30
0.0
 10
249.777974
 20
2.099087
 30
0.0
 10
211.608660
 20
2.099087
 30
0.0
  0
LWPOLYLINE
  5
11f
100
AcDbEntity
  8
0
 62
7
100
AcDbPolyline
 90
3
 70
0
 10
227.468659
 20
199.926772
 30
0.0
 10
295.001391
 20
199.926772
 30
0.0
 10
282.488571
 20
70.012418
 30
0.0
  0
SPLINE
  5
120
100
AcDbEntity
  8
0
 62
7
100
AcDbSpline
 70
8
 71
3
 72
8
 73
4
 74
0
 40
0
 40
0
 40
0
 40
0
 40
1
 40
1
 40
1
 40
1
 10
264.131222
 20
87.186263
 30
0.0
 10
261.691222
 20
87.186263
 30
0.0
 10
259.704812
 20
88.609597
 30
0.0
 10
259.908145
 20
90.778485
 30
0.0
  0
SPLINE
  5
121
100
AcDbEntity
  8
0
 62
7
100
AcDbSpline
 70
8
 71
3
 72
8
 73
4
 74
0
 40
0
 40
0
 40
0
 40
0
 40
1
 40
1
 40
1
 40
1
 10
259.908145
 20
90.778485
 30
0.0
 10
260.101051
 20
92.895237
 30
0.0
 10
262.348145
 20
94.328998
 30
0.0
 10
264.798572
 20
94.328998
 30
0.0
  0
SPLINE
  5
122
100
AcDbEntity
  8
0
 62
7
100
AcDbSpline
 70
8
 71
3
 72
8
 73
4
 74
0
 40
0
 40
0
 40
0
 40
0
 40
1
 40
1
 40
1
 40
1
 10
264.798572
 20
94.328998
 30
0.0
 10
267.243786
 20
94.328998
 30
0.0
 10
269.224982
 20
92.895237
 30
0.0
 10
269.026863
 20
90.778485
 30
0.0
  0
SPLINE
  5
123
100
AcDbEntity
  8
0
 62
7
100
AcDbSpline
 70
8
 71
3
 72
8
 73
4
 74
0
 40
0
 40
0
 40
0
 40
0
 40
1
 40
1
 40
1
 40
1
 10
269.026863
 20
90.778485
 30
0.0
 10
268.828743
 20
88.609597
 30
0.0
 10
266.586863
 20
87.186263
 30
0.0
 10
264.131222
 20
87.186263
 30
0.0
  0
LWPOLYLINE
  5
124
100
AcDbEntity
  8
0
 62
7
100
AcDbPolyline
 90
4
 70
0
 10
211.608660
 20
2.099087
 30
0.0
 10
208.412677
 20
2.119942
 30
0.0
 10
227.468659
 20
199.926772
 30
0.0
 10
227.468659
 20
199.926772
 30
0.0
  0
SPLINE
  5
125
100
AcDbEntity
  8
0
 62
7
100
AcDbSpline
 70
8
 71
3
 72
8
 73
4
 74
0
 40
0
 40
0
 40
0
 40
0
 40
1
 40
1
 40
1
 40
1
 10
267.076948
 20
114.161818
 30
0.0
 10
266.560794
 20
113.974125
 30
0.0
 10
266.211478
 20
113.786433
 30
0.0
 10
264.986264
 20
113.786433
 30
0.0
  0
SPLINE
  5
126
100
AcDbEntity
  8
0
 62
7
100
AcDbSpline
 70
8
 71
3
 72
8
 73
4
 74
0
 40
0
 40
0
 40
0
 40
0
 40
1
 40
1
 40
1
 40
1
 10
264.986264
 20
113.786433
 30
0.0
 10
262.483700
 20
113.786433
 30
0.0
 10
260.127119
 20
115.308826
 30
0.0
 10
260.330453
 20
117.519424
 30
0.0
  0
SPLINE
  5
127
100
AcDbEntity
  8
0
 62
7
100
AcDbSpline
 70
8
 71
3
 72
8
 73
4
 74
0
 40
0
 40
0
 40
0
 40
0
 40
1
 40
1
 40
1
 40
1
 10
260.330453
 20
117.519424
 30
0.0
 10
260.439940
 20
118.676860
 30
0.0
 10
260.799683
 20
119.599681
 30
0.0
 10
262.040538
 20
120.334809
 30
0.0
  0
LWPOLYLINE
  5
128
100
AcDbEntity
  8
0
 62
7
100
AcDbPolyline
 90
1
 70
1
 10
264.131222
 20
87.186263
 30
0.0
  0
LWPOLYLINE
  5
129
100
AcDbEntity
  8
0
 62
7
100
AcDbPolyline
 90
2
 70
0
 10
262.040538
 20
120.334809
 30
0.0
 10
267.076948
 20
114.161818
 30
0.0
  0
SPLINE
  5
12a
100
AcDbEntity
  8
0
 62
7
100
AcDbSpline
 70
8
 71
3
 72
8
 73
4
 74
0
 40
0
 40
0
 40
0
 40
0
 40
1
 40
1
 40
1
 40
1
 10
200.779857
 20
2.776865
 30
0.0
 10
162.615756
 20
9.450369
 30
0.0
 10
136.907124
 20
29.236266
 30
0.0
 10
140.358577
 20
66.216862
 30
0.0
  0
LWPOLYLINE
  5
12b
100
AcDbEntity
  8
0
 62
7
100
AcDbPolyline
 90
2
 70
0
 10
217.927634
 20
181.141900
 30
0.0
 10
200.779857
 20
2.776865
 30
0.0
  0
SPLINE
  5
12c
100
AcDbEntity
  8
0
 62
7
100
AcDbSpline
 70
8
 71
3
 72
8
 73
4
 74
0
 40
0
 40
0
 40
0
 40
0
 40
1
 40
1
 40
1
 40
1
 10
37.956787
 20
151.470876
 30
0.0
 10
19.734992
 20
151.606432
 30
0.0
 10
5.001147
 20
166.423696
 30
0.0
 10
5.001147
 20
184.681986
 30
0.0
  0
SPLINE
  5
12d
100
AcDbEntity
  8
0
 62
7
100
AcDbSpline
 70
8
 71
3
 72
8
 73
4
 74
0
 40
0
 40
0
 40
0
 40
0
 40
1
 40
1
 40
1
 40
1
 10
5.001147
 20
184.681986
 30
0.0
 10
5.001147
 20
202.935062
 30
0.0
 10
19.734992
 20
217.752326
 30
0.0
 10
37.956787
 20
217.903523
 30
0.0
  0
LWPOLYLINE
  5
12e
100
AcDbEntity
  8
0
 62
7
100
AcDbPolyline
 90
4
 70
0
 10
140.358577
 20
66.216862
 30
0.0
 10
140.337723
 20
66.295068
 30
0.0
 10
148.533620
 20
151.470876
 30
0.0
 10
37.956787
 20
151.470876
 30
0.0
  0
SPLINE
  5
12f
100
AcDbEntity
  8
0
 62
7
100
AcDbSpline
 70
8
 71
3
 72
8
 73
4
 74
0
 40
0
 40
0
 40
0
 40
0
 40
1
 40
1
 40
1
 40
1
 10
184.982422
 20
217.903523
 30
0.0
 10
203.292848
 20
217.851386
 30
0.0
 10
218.115326
 20
203.002840
 30
0.0
 10
218.115326
 20
184.681986
 30
0.0
  0
SPLINE
  5
130
100
AcDbEntity
  8
0
 62
7
100
AcDbSpline
 70
8
 71
3
 72
8
 73
4
 74
0
 40
0
 40
0
 40
0
 40
0
 40
1
 40
1
 40
1
 40
1
 10
218.115326
 20
184.681986
 30
0.0
 10
218.115326
 20
183.488054
 30
0.0
 10
218.047548
 20
182.304550
 30
0.0
 10
217.927634
 20
181.141900
 30
0.0
  0
LWPOLYLINE
  5
131
100
AcDbEntity
  8
0
 62
7
100
AcDbPolyline
 90
2
 70
0
 10
37.956787
 20
217.903523
 30
0.0
 10
184.982422
 20
217.903523
 30
0.0
  0
LWPOLYLINE
  5
132
100
AcDbEntity
  8
0
 62
7
100
AcDbPolyline
 90
4
 70
1
 10
72.601657
 20
144.114381
 30
0.0
 10
133.262766
 20
144.114381
 30
0.0
 10
121.297381
 20
19.893360
 30
0.0
 10
60.636273
 20
19.893360
 30
0.0
  0
ENDSEC
  0
SECTION
  2
OBJECTS
  0
DICTIONARY
  5
C
330
0
100
AcDbDictionary
  3
ACAD_GROUP
350
D
  3
ACAD_MLINESTYLE
350
17
  0
DICTIONARY
  5
D
330
C
100
AcDbDictionary
  0
DICTIONARY
  5
1A
330
C
100
AcDbDictionary
  0
DICTIONARY
  5
17
330
C
100
AcDbDictionary
  3
STANDARD
350
18
  0
DICTIONARY
  5
19
330
C
100
AcDbDictionary
  0
ENDSEC
  0
EOF
